%TF.GenerationSoftware,KiCad,Pcbnew,10.0.4*%
%TF.CreationDate,2026-09-04T19:59:28+08:00*%
%TF.ProjectId,project,70726f6a-6563-4742-9e6b-696361645f70,rev?*%
%TF.SameCoordinates,Original*%
%TF.FileFunction,Soldermask,Top*%
%TF.FilePolarity,Negative*%
%FSLAX46Y46*%
G04 Gerber Fmt 4.6, Leading zero omitted, Abs format (unit mm)*
G04 Created by KiCad (PCBNEW 10.0.4) date 2026-09-04 19:59:28*
%MOMM*%
%LPD*%
G01*
G04 APERTURE LIST*
G04 Aperture macros list*
%AMRoundRect*
0 Rectangle with rounded corners*
0 $1 Rounding radius*
0 $2 $3 $4 $5 $6 $7 $8 $9 X,Y pos of 4 corners*
0 Add a 4 corners polygon primitive as box body*
4,1,4,$2,$3,$4,$5,$6,$7,$8,$9,$2,$3,0*
0 Add four circle primitives for the rounded corners*
1,1,$1+$1,$2,$3*
1,1,$1+$1,$4,$5*
1,1,$1+$1,$6,$7*
1,1,$1+$1,$8,$9*
0 Add four rect primitives between the rounded corners*
20,1,$1+$1,$2,$3,$4,$5,0*
20,1,$1+$1,$4,$5,$6,$7,0*
20,1,$1+$1,$6,$7,$8,$9,0*
20,1,$1+$1,$8,$9,$2,$3,0*%
G04 Aperture macros list end*
%ADD10R,1.410000X1.350000*%
%ADD11R,1.132500X1.377000*%
%ADD12R,1.377000X1.132500*%
%ADD13R,6.000000X2.000000*%
%ADD14R,3.500000X2.000000*%
%ADD15C,2.000000*%
%ADD16O,0.588000X2.045000*%
%ADD17R,2.241000X2.047500*%
%ADD18C,1.600000*%
%ADD19O,2.045000X0.588000*%
%ADD20R,1.350000X1.410000*%
%ADD21R,1.575000X1.575000*%
%ADD22C,1.575000*%
%ADD23RoundRect,0.153903X0.487358X1.574097X-0.487358X1.574097X-0.487358X-1.574097X0.487358X-1.574097X0*%
%ADD24R,2.500000X1.100000*%
%ADD25R,2.340000X3.600000*%
%ADD26C,1.050000*%
%ADD27R,6.000000X1.700000*%
%ADD28R,3.500000X1.700000*%
%ADD29O,0.270000X1.500000*%
%ADD30O,1.500000X0.270000*%
%ADD31R,4.500000X1.650000*%
%ADD32R,1.500000X1.001000*%
%ADD33R,4.000000X0.800000*%
%ADD34R,8.400000X9.000000*%
%ADD35C,0.500000*%
%ADD36O,1.450000X0.380000*%
%ADD37R,2.300000X1.200000*%
%ADD38RoundRect,0.350000X-0.050000X-0.000010X0.050000X-0.000010X0.050000X0.000010X-0.050000X0.000010X0*%
%ADD39R,2.000000X6.000000*%
%ADD40R,2.000000X3.500000*%
G04 APERTURE END LIST*
D10*
%TO.C,C11*%
X108176000Y-110244500D03*
X110176000Y-110244500D03*
%TD*%
D11*
%TO.C,R14*%
X110004000Y-99429500D03*
X112004000Y-99429500D03*
%TD*%
D12*
%TO.C,R18*%
X137717000Y-84519000D03*
X137717000Y-86519000D03*
%TD*%
D13*
%TO.C,J9*%
X202286500Y-156002000D03*
D14*
X193035500Y-156002000D03*
D13*
X202286500Y-152002000D03*
D14*
X193035500Y-152002000D03*
%TD*%
D15*
%TO.C,FID3*%
X93000000Y-135000000D03*
%TD*%
D10*
%TO.C,C21*%
X159196000Y-150827000D03*
X161196000Y-150827000D03*
%TD*%
D16*
%TO.C,U2*%
X120318000Y-116567000D03*
X121588000Y-116567000D03*
X122858000Y-116567000D03*
X124128000Y-116567000D03*
X124128000Y-111427000D03*
X122858000Y-111427000D03*
X121588000Y-111427000D03*
X120318000Y-111427000D03*
%TD*%
D10*
%TO.C,C12*%
X120651000Y-123268000D03*
X118651000Y-123268000D03*
%TD*%
D17*
%TO.C,D3*%
X155835500Y-85854500D03*
X155835500Y-80671500D03*
%TD*%
D12*
%TO.C,R24*%
X192327000Y-121760000D03*
X192327000Y-123760000D03*
%TD*%
D11*
%TO.C,R3*%
X139193000Y-112473000D03*
X137193000Y-112473000D03*
%TD*%
D18*
%TO.C,TP5*%
X181786000Y-114378000D03*
%TD*%
D19*
%TO.C,U3*%
X155654000Y-99519000D03*
X155654000Y-98249000D03*
X155654000Y-96979000D03*
X155654000Y-95709000D03*
X150514000Y-95709000D03*
X150514000Y-96979000D03*
X150514000Y-98249000D03*
X150514000Y-99519000D03*
%TD*%
D11*
%TO.C,R10*%
X175960000Y-88978000D03*
X177960000Y-88978000D03*
%TD*%
D18*
%TO.C,TP16*%
X93140000Y-95455000D03*
%TD*%
D11*
%TO.C,R23*%
X117921000Y-153292000D03*
X119921000Y-153292000D03*
%TD*%
D20*
%TO.C,C16*%
X116873000Y-103500000D03*
X116873000Y-105500000D03*
%TD*%
D21*
%TO.C,J13*%
X158545000Y-161495000D03*
D22*
X161085000Y-161495000D03*
X163625000Y-161495000D03*
X166165000Y-161495000D03*
X168705000Y-161495000D03*
%TD*%
D18*
%TO.C,TP2*%
X203376000Y-88216000D03*
%TD*%
D20*
%TO.C,C18*%
X131240000Y-106558500D03*
X131240000Y-108558500D03*
%TD*%
D10*
%TO.C,C26*%
X198407000Y-127840000D03*
X196407000Y-127840000D03*
%TD*%
D18*
%TO.C,TP13*%
X203376000Y-99138000D03*
%TD*%
D23*
%TO.C,R12*%
X157420288Y-89740000D03*
X151287712Y-89740000D03*
%TD*%
D12*
%TO.C,R31*%
X146979000Y-114129500D03*
X146979000Y-112129500D03*
%TD*%
D20*
%TO.C,C2*%
X130107000Y-132579500D03*
X130107000Y-134579500D03*
%TD*%
D24*
%TO.C,U6*%
X125711000Y-134863500D03*
X125711000Y-132563500D03*
X125711000Y-130263500D03*
D25*
X119771000Y-132563500D03*
%TD*%
D18*
%TO.C,TP4*%
X203376000Y-104599000D03*
%TD*%
%TO.C,TP6*%
X93013000Y-119204000D03*
%TD*%
D20*
%TO.C,C19*%
X134425000Y-130261500D03*
X134425000Y-128261500D03*
%TD*%
D10*
%TO.C,C15*%
X122842000Y-105361000D03*
X120842000Y-105361000D03*
%TD*%
D17*
%TO.C,D1*%
X164133000Y-80671500D03*
X164133000Y-85854500D03*
%TD*%
D12*
%TO.C,R21*%
X134564500Y-102614500D03*
X134564500Y-104614500D03*
%TD*%
D11*
%TO.C,R22*%
X138536500Y-102737000D03*
X136536500Y-102737000D03*
%TD*%
D12*
%TO.C,R29*%
X151043000Y-114129500D03*
X151043000Y-112129500D03*
%TD*%
D26*
%TO.C,J7*%
X202376000Y-130507000D03*
X202376000Y-129237000D03*
X202376000Y-127967000D03*
X202376000Y-126697000D03*
X202376000Y-125427000D03*
%TD*%
D27*
%TO.C,J14*%
X94409000Y-156923000D03*
D28*
X103809000Y-156923000D03*
%TD*%
D18*
%TO.C,TP1*%
X203376000Y-118696000D03*
%TD*%
D10*
%TO.C,C20*%
X178119000Y-123014000D03*
X180119000Y-123014000D03*
%TD*%
D29*
%TO.C,U5*%
X159127000Y-123103500D03*
X158627000Y-123103500D03*
X158127000Y-123103500D03*
X157627000Y-123103500D03*
X157127000Y-123103500D03*
X156627000Y-123103500D03*
X156127000Y-123103500D03*
X155627000Y-123103500D03*
X155127000Y-123103500D03*
X154627000Y-123103500D03*
X154127000Y-123103500D03*
X153627000Y-123103500D03*
D30*
X152127000Y-124603500D03*
X152127000Y-125103500D03*
X152127000Y-125603500D03*
X152127000Y-126103500D03*
X152127000Y-126603500D03*
X152127000Y-127103500D03*
X152127000Y-127603500D03*
X152127000Y-128103500D03*
X152127000Y-128603500D03*
X152127000Y-129103500D03*
X152127000Y-129603500D03*
X152127000Y-130103500D03*
D29*
X153627000Y-131603500D03*
X154127000Y-131603500D03*
X154627000Y-131603500D03*
X155127000Y-131603500D03*
X155627000Y-131603500D03*
X156127000Y-131603500D03*
X156627000Y-131603500D03*
X157127000Y-131603500D03*
X157627000Y-131603500D03*
X158127000Y-131603500D03*
X158627000Y-131603500D03*
X159127000Y-131603500D03*
D30*
X160627000Y-130103500D03*
X160627000Y-129603500D03*
X160627000Y-129103500D03*
X160627000Y-128603500D03*
X160627000Y-128103500D03*
X160627000Y-127603500D03*
X160627000Y-127103500D03*
X160627000Y-126603500D03*
X160627000Y-126103500D03*
X160627000Y-125603500D03*
X160627000Y-125103500D03*
X160627000Y-124603500D03*
%TD*%
D13*
%TO.C,J3*%
X94082500Y-124443000D03*
D14*
X103333500Y-124443000D03*
D13*
X94082500Y-128443000D03*
D14*
X103333500Y-128443000D03*
%TD*%
D11*
%TO.C,R32*%
X181619000Y-128173000D03*
X183619000Y-128173000D03*
%TD*%
%TO.C,R33*%
X185707000Y-130253000D03*
X183707000Y-130253000D03*
%TD*%
%TO.C,R11*%
X186713000Y-85505500D03*
X184713000Y-85505500D03*
%TD*%
D16*
%TO.C,U8*%
X137082000Y-92601000D03*
X135812000Y-92601000D03*
X134542000Y-92601000D03*
X133272000Y-92601000D03*
X133272000Y-97741000D03*
X134542000Y-97741000D03*
X135812000Y-97741000D03*
X137082000Y-97741000D03*
%TD*%
D31*
%TO.C,C6*%
X189605000Y-76786000D03*
X198605000Y-76786000D03*
%TD*%
D11*
%TO.C,R5*%
X163282000Y-72185000D03*
X165282000Y-72185000D03*
%TD*%
D12*
%TO.C,R27*%
X158536000Y-112129500D03*
X158536000Y-114129500D03*
%TD*%
%TO.C,R26*%
X156489500Y-114129500D03*
X156489500Y-112129500D03*
%TD*%
%TO.C,R20*%
X131269500Y-104614500D03*
X131269500Y-102614500D03*
%TD*%
D18*
%TO.C,TP20*%
X93267000Y-144096000D03*
%TD*%
D32*
%TO.C,U7*%
X182446000Y-85549000D03*
X182446000Y-83009000D03*
X176046000Y-83009000D03*
X176046000Y-85549000D03*
%TD*%
D12*
%TO.C,R8*%
X162990000Y-76167000D03*
X162990000Y-78167000D03*
%TD*%
%TO.C,R2*%
X148639000Y-86041000D03*
X148639000Y-84041000D03*
%TD*%
D10*
%TO.C,C10*%
X120685000Y-121153500D03*
X118685000Y-121153500D03*
%TD*%
D31*
%TO.C,C5*%
X180571000Y-95328000D03*
X171571000Y-95328000D03*
%TD*%
D12*
%TO.C,R4*%
X151052000Y-104361000D03*
X151052000Y-106361000D03*
%TD*%
D33*
%TO.C,U1*%
X171837500Y-72976000D03*
X171837500Y-74246000D03*
X171837500Y-75516000D03*
X171837500Y-76786000D03*
X171837500Y-78056000D03*
X171837500Y-79326000D03*
X171837500Y-80596000D03*
D34*
X182082500Y-76786000D03*
%TD*%
D12*
%TO.C,R16*%
X129081000Y-102583000D03*
X129081000Y-104583000D03*
%TD*%
D18*
%TO.C,TP9*%
X203376000Y-93677000D03*
%TD*%
%TO.C,J11*%
X202614000Y-137746000D03*
X202614000Y-140286000D03*
X202614000Y-142826000D03*
X202614000Y-145366000D03*
X202614000Y-147906000D03*
%TD*%
D12*
%TO.C,R19*%
X134564500Y-108420000D03*
X134564500Y-106420000D03*
%TD*%
D19*
%TO.C,U4*%
X119018000Y-97360000D03*
X119018000Y-98630000D03*
X119018000Y-99900000D03*
X119018000Y-101170000D03*
X124158000Y-101170000D03*
X124158000Y-99900000D03*
X124158000Y-98630000D03*
X124158000Y-97360000D03*
%TD*%
D11*
%TO.C,R17*%
X137847000Y-88894000D03*
X135847000Y-88894000D03*
%TD*%
D10*
%TO.C,C4*%
X155005000Y-92788000D03*
X157005000Y-92788000D03*
%TD*%
D12*
%TO.C,FB1*%
X126668000Y-93119500D03*
X126668000Y-95051500D03*
%TD*%
D20*
%TO.C,C13*%
X116127000Y-97376000D03*
X116127000Y-99376000D03*
%TD*%
D10*
%TO.C,C14*%
X142781000Y-72722000D03*
X140781000Y-72722000D03*
%TD*%
D12*
%TO.C,R7*%
X165149000Y-76167000D03*
X165149000Y-78167000D03*
%TD*%
D18*
%TO.C,TP3*%
X187247000Y-114378000D03*
%TD*%
D20*
%TO.C,C1*%
X125535000Y-128356500D03*
X125535000Y-126356500D03*
%TD*%
D13*
%TO.C,J4*%
X202159500Y-113711000D03*
D14*
X192908500Y-113711000D03*
D13*
X202159500Y-109711000D03*
D14*
X192908500Y-109711000D03*
%TD*%
D18*
%TO.C,TP8*%
X163244000Y-54307000D03*
%TD*%
D35*
%TO.C,TP21*%
X122333000Y-153292000D03*
%TD*%
D11*
%TO.C,R6*%
X163260000Y-74246000D03*
X165260000Y-74246000D03*
%TD*%
D36*
%TO.C,U10*%
X129630000Y-155242000D03*
X129630000Y-154592000D03*
X129630000Y-153942000D03*
X129630000Y-153292000D03*
X125230000Y-153292000D03*
X125230000Y-153942000D03*
X125230000Y-154592000D03*
X125230000Y-155242000D03*
%TD*%
D18*
%TO.C,TP10*%
X177722000Y-69928000D03*
%TD*%
D11*
%TO.C,R15*%
X129127000Y-106504000D03*
X127127000Y-106504000D03*
%TD*%
D37*
%TO.C,RSH2*%
X159917000Y-88967000D03*
X166317000Y-88967000D03*
D38*
X159917000Y-91067000D03*
X166317000Y-91067000D03*
%TD*%
D12*
%TO.C,R13*%
X113968000Y-99503000D03*
X113968000Y-97503000D03*
%TD*%
D17*
%TO.C,D2*%
X159984500Y-85854500D03*
X159984500Y-80671500D03*
%TD*%
D18*
%TO.C,J10*%
X176960000Y-160479000D03*
X179500000Y-160479000D03*
X182040000Y-160479000D03*
X184580000Y-160479000D03*
X187120000Y-160479000D03*
%TD*%
D39*
%TO.C,J8*%
X144908000Y-159871000D03*
D40*
X144908000Y-150621000D03*
D39*
X148908000Y-159871000D03*
D40*
X148908000Y-150621000D03*
D39*
X152908000Y-159871000D03*
D40*
X152908000Y-150621000D03*
%TD*%
D18*
%TO.C,TP15*%
X187755000Y-123776000D03*
%TD*%
%TO.C,TP14*%
X143305000Y-86057000D03*
%TD*%
D12*
%TO.C,FB3*%
X132266000Y-132613500D03*
X132266000Y-134545500D03*
%TD*%
D18*
%TO.C,TP18*%
X93140000Y-89232000D03*
%TD*%
D12*
%TO.C,FB2*%
X132353000Y-84730000D03*
X132353000Y-86662000D03*
%TD*%
D20*
%TO.C,C25*%
X134259000Y-138754000D03*
X134259000Y-140754000D03*
%TD*%
D15*
%TO.C,FID1*%
X195000000Y-55000000D03*
%TD*%
%TO.C,FID2*%
X93000000Y-70000000D03*
%TD*%
D12*
%TO.C,R25*%
X164133000Y-99408000D03*
X164133000Y-101408000D03*
%TD*%
D39*
%TO.C,J2*%
X118222000Y-55905000D03*
D40*
X118222000Y-65155000D03*
D39*
X114222000Y-55905000D03*
D40*
X114222000Y-65155000D03*
D39*
X110222000Y-55905000D03*
D40*
X110222000Y-65155000D03*
%TD*%
D10*
%TO.C,C9*%
X126430000Y-113997000D03*
X128430000Y-113997000D03*
%TD*%
D18*
%TO.C,TP12*%
X93140000Y-83517000D03*
%TD*%
D12*
%TO.C,R1*%
X126668000Y-85184000D03*
X126668000Y-87184000D03*
%TD*%
%TO.C,R28*%
X153045500Y-112151500D03*
X153045500Y-114151500D03*
%TD*%
D20*
%TO.C,C23*%
X132261000Y-138754000D03*
X132261000Y-140754000D03*
%TD*%
D10*
%TO.C,C22*%
X132240000Y-136603000D03*
X130240000Y-136603000D03*
%TD*%
D17*
%TO.C,D4*%
X151687000Y-80671500D03*
X151687000Y-85854500D03*
%TD*%
D12*
%TO.C,R30*%
X149011000Y-112129500D03*
X149011000Y-114129500D03*
%TD*%
%TO.C,R9*%
X160069000Y-76167000D03*
X160069000Y-78167000D03*
%TD*%
D21*
%TO.C,J12*%
X140384000Y-161622000D03*
D22*
X137844000Y-161622000D03*
X135304000Y-161622000D03*
X132764000Y-161622000D03*
X130224000Y-161622000D03*
%TD*%
D18*
%TO.C,TP17*%
X156005000Y-54307000D03*
%TD*%
%TO.C,TP11*%
X97331000Y-111192000D03*
%TD*%
%TO.C,TP19*%
X93267000Y-150065000D03*
%TD*%
D13*
%TO.C,J6*%
X94611000Y-100472000D03*
D14*
X103861000Y-100472000D03*
D13*
X94611000Y-104472000D03*
D14*
X103861000Y-104472000D03*
D13*
X94611000Y-108472000D03*
D14*
X103861000Y-108472000D03*
%TD*%
D39*
%TO.C,J1*%
X148575000Y-56047000D03*
D40*
X148575000Y-65297000D03*
D39*
X144575000Y-56047000D03*
D40*
X144575000Y-65297000D03*
D39*
X140575000Y-56047000D03*
D40*
X140575000Y-65297000D03*
%TD*%
D18*
%TO.C,TP7*%
X93013000Y-113362000D03*
%TD*%
D20*
%TO.C,C17*%
X134542000Y-86646000D03*
X134542000Y-84646000D03*
%TD*%
D10*
%TO.C,C24*%
X159196000Y-152986000D03*
X161196000Y-152986000D03*
%TD*%
D39*
%TO.C,J5*%
X132446000Y-55905000D03*
D40*
X132446000Y-65155000D03*
D39*
X128446000Y-55905000D03*
D40*
X128446000Y-65155000D03*
D39*
X124446000Y-55905000D03*
D40*
X124446000Y-65155000D03*
%TD*%
D20*
%TO.C,C3*%
X132266000Y-130261500D03*
X132266000Y-128261500D03*
%TD*%
M02*
