M48
; DRILL file KiCad 10.0.4 date 2026-09-04T19:59:30
; FORMAT={-:-/ absolute / metric / decimal}
; #@! TF.CreationDate,2026-09-04T19:59:30+08:00
; #@! TF.GenerationSoftware,Kicad,Pcbnew,10.0.4
; #@! TF.FileFunction,Plated,1,2,PTH
FMAT,2
METRIC
; #@! TA.AperFunction,Plated,PTH,ViaDrill
T1C0.457
; #@! TA.AperFunction,Plated,PTH,ComponentDrill
T2C0.650
; #@! TA.AperFunction,Plated,PTH,ComponentDrill
T3C0.700
; #@! TA.AperFunction,Plated,PTH,ViaDrill
T4C0.762
; #@! TA.AperFunction,Plated,PTH,ComponentDrill
T5C0.850
; #@! TA.AperFunction,Plated,PTH,ViaDrill
T6C0.914
; #@! TA.AperFunction,Plated,PTH,ComponentDrill
T7C1.020
; #@! TA.AperFunction,Plated,PTH,ViaDrill
T8C1.067
; #@! TA.AperFunction,Plated,PTH,ViaDrill
T9C1.219
%
G90
G05
T1
X111.047Y-68.912
X115.365Y-91.264
X118.54Y-111.317
X119.048Y-103.329
X119.175Y-87.2
X119.569Y-89.076
X120.318Y-95.582
X120.337Y-113.692
X121.295Y-102.313
X121.6Y-113.035
X122.858Y-119.077
X124.128Y-109.724
X126.668Y-88.929
X126.795Y-146.636
X126.795Y-147.906
X129.335Y-149.176
X129.335Y-150.446
X129.716Y-84.66
X132.123Y-154.25
X132.776Y-149.811
X135.685Y-110.949
X137.59Y-131.269
X137.844Y-145.386
X140.257Y-143.969
X141.146Y-127.586
X141.223Y-128.855
X144.702Y-126.316
X144.908Y-147.779
X149.035Y-148.16
X149.147Y-124.854
X153.542Y-140.756
X154.1Y-142.318
X154.227Y-127.459
X154.651Y-125.51
X154.713Y-140.645
X155.37Y-124.665
X155.497Y-128.614
X157.034Y-140.032
X157.275Y-130.113
X157.293Y-128.457
X157.783Y-140.794
X158.939Y-148.033
X166.165Y-140.54
X166.419Y-111.711
X172.388Y-102.567
X174.13Y-123.344
X174.297Y-129.995
X175.23Y-128.808
X175.653Y-130.29
X175.69Y-97.487
X176.325Y-92.966
X176.839Y-129.358
X176.96Y-133.25
X178.406Y-128.171
X179.627Y-134.317
X182.04Y-135.714
X183.564Y-133.377
X184.58Y-137.111
X185.088Y-128.173
X186.739Y-87.657
X187.255Y-130.253
X188.771Y-156.034
X189.66Y-134.952
X193.216Y-126.316
X200.582Y-131.523
T2
X202.376Y-125.427
X202.376Y-126.697
X202.376Y-127.967
X202.376Y-129.237
X202.376Y-130.507
T3
X93.013Y-113.362
X93.013Y-119.204
X93.14Y-83.517
X93.14Y-89.232
X93.14Y-95.455
X93.267Y-144.096
X93.267Y-150.065
X97.331Y-111.192
X143.305Y-86.057
X156.005Y-54.307
X163.244Y-54.307
X177.722Y-69.928
X181.786Y-114.378
X187.247Y-114.378
X187.755Y-123.776
X203.376Y-88.216
X203.376Y-93.677
X203.376Y-99.138
X203.376Y-104.599
X203.376Y-118.696
T4
X109.142Y-89.232
X115.832Y-89.318
X119.048Y-92.407
X121.245Y-83.133
X121.588Y-108.536
X122.223Y-100.662
X122.299Y-85.913
X126.668Y-97.487
X137.844Y-99.646
X147.115Y-97.995
X147.242Y-99.646
X160.958Y-110.441
T5
X176.96Y-160.479
X179.5Y-160.479
X182.04Y-160.479
X184.58Y-160.479
X187.12Y-160.479
X202.614Y-137.746
X202.614Y-140.286
X202.614Y-142.826
X202.614Y-145.366
X202.614Y-147.906
T6
X101.141Y-86.819
X107.174Y-122.76
X117.684Y-124.885
X123.62Y-126.062
X124.128Y-119.331
X124.733Y-140.726
X127.557Y-124.885
X133.272Y-90.016
X137.717Y-124.885
X140.181Y-122.506
X151.09Y-93.296
X157.335Y-148.43
T7
X130.224Y-161.622
X132.764Y-161.622
X135.304Y-161.622
X137.844Y-161.622
X140.384Y-161.622
X158.545Y-161.495
X161.085Y-161.495
X163.625Y-161.495
X166.165Y-161.495
X168.705Y-161.495
T8
X115.873Y-101.17
X132.446Y-69.928
X140.765Y-88.597
X144.956Y-78.945
X155.835Y-78.861
X157.783Y-98.249
X159.942Y-92.28
X161.466Y-95.709
X164.387Y-91.391
X166.8Y-94.058
X177.595Y-110.695
X187.501Y-104.472
X193.216Y-87.073
T9
X106.094Y-73.357
X106.769Y-102.44
X106.856Y-97.487
X108.594Y-107.012
X110.92Y-121.49
X111.555Y-157.685
X111.933Y-131.373
X111.936Y-97.503
X112.063Y-106.885
X112.063Y-142.318
X112.825Y-159.971
X113.206Y-150.065
X114.882Y-105.361
X116.381Y-121.49
X116.635Y-131.373
X116.889Y-110.187
X121.588Y-114.759
X122.35Y-127.586
X122.35Y-138.521
X122.35Y-149.938
X126.414Y-117.426
X127.049Y-104.599
X128.278Y-134.707
X128.359Y-126.356
X130.097Y-112.346
X130.478Y-100.789
X131.095Y-93.931
X131.841Y-147.922
X133.018Y-144.096
X142.616Y-107.203
X143.051Y-81.866
X146.435Y-92.163
X146.48Y-88.724
X146.582Y-96.501
X147.369Y-68.519
X147.496Y-71.287
X148.868Y-68.277
X148.893Y-69.928
X151.052Y-109.653
X153.175Y-147.815
X153.728Y-87.2
X157.402Y-76.532
X158.452Y-101.644
X158.656Y-94.058
X158.761Y-145.194
X160.196Y-116.283
X160.635Y-106.307
X161.196Y-148.049
X161.974Y-156.669
X162.228Y-94.058
X162.228Y-100.789
X163.244Y-117.819
X166.043Y-79.715
X167.181Y-121.236
X168.315Y-77.302
X168.904Y-99.138
X168.959Y-90.083
X168.996Y-84.178
X170.558Y-82.367
X173.023Y-148.668
X173.582Y-91.899
X176.579Y-79.326
X178.45Y-121.236
X180.516Y-90.629
X182.675Y-97.36
X185.977Y-68.15
X188.831Y-129.55
X189.152Y-87.073
X189.228Y-132.869
X189.533Y-107.012
X197.788Y-125.3
X200.963Y-125.427
M30
