%TF.GenerationSoftware,KiCad,Pcbnew,10.0.4*%
%TF.CreationDate,2026-09-04T19:59:28+08:00*%
%TF.ProjectId,project,70726f6a-6563-4742-9e6b-696361645f70,rev?*%
%TF.SameCoordinates,Original*%
%TF.FileFunction,Legend,Top*%
%TF.FilePolarity,Positive*%
%FSLAX46Y46*%
G04 Gerber Fmt 4.6, Leading zero omitted, Abs format (unit mm)*
G04 Created by KiCad (PCBNEW 10.0.4) date 2026-09-04 19:59:28*
%MOMM*%
%LPD*%
G01*
G04 APERTURE LIST*
G04 Aperture macros list*
%AMRoundRect*
0 Rectangle with rounded corners*
0 $1 Rounding radius*
0 $2 $3 $4 $5 $6 $7 $8 $9 X,Y pos of 4 corners*
0 Add a 4 corners polygon primitive as box body*
4,1,4,$2,$3,$4,$5,$6,$7,$8,$9,$2,$3,0*
0 Add four circle primitives for the rounded corners*
1,1,$1+$1,$2,$3*
1,1,$1+$1,$4,$5*
1,1,$1+$1,$6,$7*
1,1,$1+$1,$8,$9*
0 Add four rect primitives between the rounded corners*
20,1,$1+$1,$2,$3,$4,$5,0*
20,1,$1+$1,$4,$5,$6,$7,0*
20,1,$1+$1,$6,$7,$8,$9,0*
20,1,$1+$1,$8,$9,$2,$3,0*%
G04 Aperture macros list end*
%ADD10C,0.150000*%
%ADD11C,0.152500*%
%ADD12C,0.254000*%
%ADD13C,0.000000*%
%ADD14C,0.300000*%
%ADD15C,0.152000*%
%ADD16C,0.200000*%
%ADD17C,0.400000*%
%ADD18R,1.410000X1.350000*%
%ADD19R,1.132500X1.377000*%
%ADD20R,1.377000X1.132500*%
%ADD21R,6.000000X2.000000*%
%ADD22R,3.500000X2.000000*%
%ADD23C,2.000000*%
%ADD24O,0.588000X2.045000*%
%ADD25R,2.241000X2.047500*%
%ADD26C,1.600000*%
%ADD27O,2.045000X0.588000*%
%ADD28R,1.350000X1.410000*%
%ADD29R,1.575000X1.575000*%
%ADD30C,1.575000*%
%ADD31RoundRect,0.153903X0.487358X1.574097X-0.487358X1.574097X-0.487358X-1.574097X0.487358X-1.574097X0*%
%ADD32R,2.500000X1.100000*%
%ADD33R,2.340000X3.600000*%
%ADD34C,1.050000*%
%ADD35R,6.000000X1.700000*%
%ADD36R,3.500000X1.700000*%
%ADD37O,0.270000X1.500000*%
%ADD38O,1.500000X0.270000*%
%ADD39R,4.500000X1.650000*%
%ADD40R,1.500000X1.001000*%
%ADD41R,4.000000X0.800000*%
%ADD42R,8.400000X9.000000*%
%ADD43C,0.500000*%
%ADD44O,1.450000X0.380000*%
%ADD45R,2.300000X1.200000*%
%ADD46RoundRect,0.350000X-0.050000X-0.000010X0.050000X-0.000010X0.050000X0.000010X-0.050000X0.000010X0*%
%ADD47R,2.000000X6.000000*%
%ADD48R,2.000000X3.500000*%
G04 APERTURE END LIST*
D10*
X153711142Y-90194819D02*
X153377809Y-89718628D01*
X153139714Y-90194819D02*
X153139714Y-89194819D01*
X153139714Y-89194819D02*
X153520666Y-89194819D01*
X153520666Y-89194819D02*
X153615904Y-89242438D01*
X153615904Y-89242438D02*
X153663523Y-89290057D01*
X153663523Y-89290057D02*
X153711142Y-89385295D01*
X153711142Y-89385295D02*
X153711142Y-89528152D01*
X153711142Y-89528152D02*
X153663523Y-89623390D01*
X153663523Y-89623390D02*
X153615904Y-89671009D01*
X153615904Y-89671009D02*
X153520666Y-89718628D01*
X153520666Y-89718628D02*
X153139714Y-89718628D01*
X154663523Y-90194819D02*
X154092095Y-90194819D01*
X154377809Y-90194819D02*
X154377809Y-89194819D01*
X154377809Y-89194819D02*
X154282571Y-89337676D01*
X154282571Y-89337676D02*
X154187333Y-89432914D01*
X154187333Y-89432914D02*
X154092095Y-89480533D01*
X155044476Y-89290057D02*
X155092095Y-89242438D01*
X155092095Y-89242438D02*
X155187333Y-89194819D01*
X155187333Y-89194819D02*
X155425428Y-89194819D01*
X155425428Y-89194819D02*
X155520666Y-89242438D01*
X155520666Y-89242438D02*
X155568285Y-89290057D01*
X155568285Y-89290057D02*
X155615904Y-89385295D01*
X155615904Y-89385295D02*
X155615904Y-89480533D01*
X155615904Y-89480533D02*
X155568285Y-89623390D01*
X155568285Y-89623390D02*
X154996857Y-90194819D01*
X154996857Y-90194819D02*
X155615904Y-90194819D01*
%TO.C,C11*%
D11*
X107212500Y-110995500D02*
X107212500Y-109493500D01*
X107365000Y-109341000D02*
X108775000Y-109341000D01*
X108775000Y-111148000D02*
X107365000Y-111148000D01*
X109577000Y-111148000D02*
X110987000Y-111148000D01*
X110987000Y-109341000D02*
X109577000Y-109341000D01*
X111139500Y-110995500D02*
X111139500Y-109493500D01*
X107212500Y-109493500D02*
G75*
G02*
X107365000Y-109341000I152499J1D01*
G01*
X107365000Y-111148000D02*
G75*
G02*
X107212500Y-110995500I-1J152499D01*
G01*
X110987000Y-109341000D02*
G75*
G02*
X111139500Y-109493500I0J-152500D01*
G01*
X111139500Y-110995500D02*
G75*
G02*
X110987000Y-111148000I-152500J0D01*
G01*
%TO.C,R14*%
X109243000Y-98512500D02*
X110528000Y-98512500D01*
X109243000Y-100346500D02*
X109243000Y-98512500D01*
X110528000Y-100346500D02*
X109243000Y-100346500D01*
X111480000Y-100346500D02*
X112765000Y-100346500D01*
X112765000Y-98512500D02*
X111480000Y-98512500D01*
X112765000Y-100346500D02*
X112765000Y-98512500D01*
%TO.C,R18*%
X136800000Y-83758000D02*
X138634000Y-83758000D01*
X136800000Y-85043000D02*
X136800000Y-83758000D01*
X136800000Y-85995000D02*
X136800000Y-87280000D01*
X136800000Y-87280000D02*
X138634000Y-87280000D01*
X138634000Y-83758000D02*
X138634000Y-85043000D01*
X138634000Y-87280000D02*
X138634000Y-85995000D01*
%TO.C,J9*%
D12*
X191737000Y-150771000D02*
X191730500Y-150065000D01*
X191737000Y-150771000D02*
X198117000Y-150771000D01*
X191737000Y-153233000D02*
X198117000Y-153233000D01*
X191737000Y-154771000D02*
X191737000Y-153233000D01*
X191737000Y-154771000D02*
X198117000Y-154771000D01*
X191737000Y-157233000D02*
X198117000Y-157233000D01*
X191737000Y-158066000D02*
X191737000Y-157233000D01*
X191737000Y-158066000D02*
X204848500Y-158066000D01*
X198117000Y-150771000D02*
X198117000Y-153177000D01*
X198117000Y-153177000D02*
X198117000Y-153233000D01*
X198117000Y-154771000D02*
X198117000Y-157177000D01*
X198117000Y-157177000D02*
X198117000Y-157233000D01*
X200937500Y-153489000D02*
X201699000Y-153494000D01*
X201699000Y-153494000D02*
X201699500Y-153870000D01*
X201699000Y-153494000D02*
X204493000Y-153489000D01*
X201699500Y-153870000D02*
X200937500Y-153489000D01*
X204493000Y-153489000D02*
X204493500Y-153489000D01*
X204848500Y-150065000D02*
X191737000Y-150065000D01*
X204848500Y-150771000D02*
X204848500Y-150065000D01*
X204848500Y-154771000D02*
X204848500Y-153233000D01*
X204848500Y-158066000D02*
X204848500Y-157233000D01*
X197228000Y-152034000D02*
G75*
G02*
X195958000Y-152034000I-635000J0D01*
G01*
X195958000Y-152034000D02*
G75*
G02*
X197228000Y-152034000I635000J0D01*
G01*
X197228000Y-156034000D02*
G75*
G02*
X195958000Y-156034000I-635000J0D01*
G01*
X195958000Y-156034000D02*
G75*
G02*
X197228000Y-156034000I635000J0D01*
G01*
D13*
G36*
X201699000Y-153494000D02*
G01*
X201699500Y-153870000D01*
X200937500Y-153489000D01*
X201699000Y-153494000D01*
G37*
%TO.C,C21*%
D11*
X158232500Y-151578000D02*
X158232500Y-150076000D01*
X158385000Y-149923500D02*
X159795000Y-149923500D01*
X159795000Y-151730500D02*
X158385000Y-151730500D01*
X160597000Y-151730500D02*
X162007000Y-151730500D01*
X162007000Y-149923500D02*
X160597000Y-149923500D01*
X162159500Y-151578000D02*
X162159500Y-150076000D01*
X158232500Y-150076000D02*
G75*
G02*
X158385000Y-149923500I152499J1D01*
G01*
X158385000Y-151730500D02*
G75*
G02*
X158232500Y-151578000I-1J152499D01*
G01*
X162007000Y-149923500D02*
G75*
G02*
X162159500Y-150076000I0J-152500D01*
G01*
X162159500Y-151578000D02*
G75*
G02*
X162007000Y-151730500I-152500J0D01*
G01*
%TO.C,U2*%
X119697000Y-112475500D02*
X124749000Y-112475500D01*
X119697000Y-115518500D02*
X119697000Y-112475500D01*
X124749000Y-112475500D02*
X124749000Y-115518500D01*
X124749000Y-115518500D02*
X119697000Y-115518500D01*
D14*
X119721500Y-116769500D02*
G75*
G02*
X119421500Y-116769500I-150000J0D01*
G01*
X119421500Y-116769500D02*
G75*
G02*
X119721500Y-116769500I150000J0D01*
G01*
X120468000Y-114766000D02*
G75*
G02*
X120168000Y-114766000I-150000J0D01*
G01*
X120168000Y-114766000D02*
G75*
G02*
X120468000Y-114766000I150000J0D01*
G01*
%TO.C,C12*%
D11*
X117687500Y-122517000D02*
X117687500Y-124019000D01*
X117840000Y-124171500D02*
X119250000Y-124171500D01*
X119250000Y-122364500D02*
X117840000Y-122364500D01*
X120052000Y-122364500D02*
X121462000Y-122364500D01*
X121462000Y-124171500D02*
X120052000Y-124171500D01*
X121614500Y-122517000D02*
X121614500Y-124019000D01*
X117687500Y-122517000D02*
G75*
G02*
X117840000Y-122364500I152500J0D01*
G01*
X117840000Y-124171500D02*
G75*
G02*
X117687500Y-124019000I0J152500D01*
G01*
X121462000Y-122364500D02*
G75*
G02*
X121614500Y-122517000I1J-152499D01*
G01*
X121614500Y-124019000D02*
G75*
G02*
X121462000Y-124171500I-152499J-1D01*
G01*
%TO.C,D3*%
D15*
X153930500Y-81006000D02*
X154535000Y-81006000D01*
X153930500Y-81010500D02*
X153930500Y-81006000D01*
D11*
X153930500Y-81010500D02*
X153947000Y-85860500D01*
D15*
X157136000Y-81006000D02*
X157740500Y-81006000D01*
D11*
X157740500Y-81006000D02*
X157727000Y-85856000D01*
D13*
G36*
X154620000Y-85930000D02*
G01*
X153930500Y-85930000D01*
X153930500Y-85473000D01*
X154620000Y-85473000D01*
X154620000Y-85930000D01*
G37*
G36*
X157730500Y-84533000D02*
G01*
X153944000Y-84533000D01*
X153942500Y-84152000D01*
X157730500Y-84152000D01*
X157730500Y-84533000D01*
G37*
G36*
X157740500Y-85930000D02*
G01*
X157051000Y-85930000D01*
X157051000Y-85473000D01*
X157740500Y-85473000D01*
X157740500Y-85930000D01*
G37*
%TO.C,R24*%
D11*
X191410000Y-120999000D02*
X193244000Y-120999000D01*
X191410000Y-122284000D02*
X191410000Y-120999000D01*
X191410000Y-123236000D02*
X191410000Y-124521000D01*
X191410000Y-124521000D02*
X193244000Y-124521000D01*
X193244000Y-120999000D02*
X193244000Y-122284000D01*
X193244000Y-124521000D02*
X193244000Y-123236000D01*
%TO.C,R3*%
X136432000Y-111556000D02*
X136432000Y-113390000D01*
X136432000Y-113390000D02*
X137717000Y-113390000D01*
X137717000Y-111556000D02*
X136432000Y-111556000D01*
X138669000Y-111556000D02*
X139954000Y-111556000D01*
X139954000Y-111556000D02*
X139954000Y-113390000D01*
X139954000Y-113390000D02*
X138669000Y-113390000D01*
%TO.C,U3*%
X151562500Y-95088000D02*
X154605500Y-95088000D01*
X151562500Y-100140000D02*
X151562500Y-95088000D01*
X154605500Y-95088000D02*
X154605500Y-100140000D01*
X154605500Y-100140000D02*
X151562500Y-100140000D01*
D14*
X154003000Y-99519000D02*
G75*
G02*
X153703000Y-99519000I-150000J0D01*
G01*
X153703000Y-99519000D02*
G75*
G02*
X154003000Y-99519000I150000J0D01*
G01*
X156006500Y-100265500D02*
G75*
G02*
X155706500Y-100265500I-150000J0D01*
G01*
X155706500Y-100265500D02*
G75*
G02*
X156006500Y-100265500I150000J0D01*
G01*
%TO.C,R10*%
D11*
X175199000Y-88061000D02*
X176484000Y-88061000D01*
X175199000Y-89895000D02*
X175199000Y-88061000D01*
X176484000Y-89895000D02*
X175199000Y-89895000D01*
X177436000Y-89895000D02*
X178721000Y-89895000D01*
X178721000Y-88061000D02*
X177436000Y-88061000D01*
X178721000Y-89895000D02*
X178721000Y-88061000D01*
%TO.C,R23*%
X117160000Y-152375000D02*
X118445000Y-152375000D01*
X117160000Y-154209000D02*
X117160000Y-152375000D01*
X118445000Y-154209000D02*
X117160000Y-154209000D01*
X119397000Y-154209000D02*
X120682000Y-154209000D01*
X120682000Y-152375000D02*
X119397000Y-152375000D01*
X120682000Y-154209000D02*
X120682000Y-152375000D01*
%TO.C,C16*%
X115969500Y-104099000D02*
X115969500Y-102689000D01*
X115969500Y-104901000D02*
X115969500Y-106311000D01*
X116122000Y-102536500D02*
X117624000Y-102536500D01*
X116122000Y-106463500D02*
X117624000Y-106463500D01*
X117776500Y-102689000D02*
X117776500Y-104099000D01*
X117776500Y-106311000D02*
X117776500Y-104901000D01*
X115969500Y-102689000D02*
G75*
G02*
X116122000Y-102536500I152499J1D01*
G01*
X116122000Y-106463500D02*
G75*
G02*
X115969500Y-106311000I0J152500D01*
G01*
X117624000Y-102536500D02*
G75*
G02*
X117776500Y-102689000I1J-152499D01*
G01*
X117776500Y-106311000D02*
G75*
G02*
X117624000Y-106463500I-152500J0D01*
G01*
%TO.C,J13*%
D12*
X157025000Y-160225000D02*
X157025000Y-162765000D01*
X157025000Y-162765000D02*
X170225000Y-162765000D01*
X159863500Y-160225000D02*
X159863500Y-162765000D01*
X170225000Y-160225000D02*
X157025000Y-160225000D01*
X170225000Y-162765000D02*
X170225000Y-160225000D01*
%TO.C,C18*%
D11*
X130336500Y-107157500D02*
X130336500Y-105747500D01*
X130336500Y-107959500D02*
X130336500Y-109369500D01*
X130489000Y-105595000D02*
X131991000Y-105595000D01*
X130489000Y-109522000D02*
X131991000Y-109522000D01*
X132143500Y-105747500D02*
X132143500Y-107157500D01*
X132143500Y-109369500D02*
X132143500Y-107959500D01*
X130336500Y-105747500D02*
G75*
G02*
X130489000Y-105595000I152499J1D01*
G01*
X130489000Y-109522000D02*
G75*
G02*
X130336500Y-109369500I0J152500D01*
G01*
X131991000Y-105595000D02*
G75*
G02*
X132143500Y-105747500I1J-152499D01*
G01*
X132143500Y-109369500D02*
G75*
G02*
X131991000Y-109522000I-152500J0D01*
G01*
%TO.C,C26*%
X195443500Y-127089000D02*
X195443500Y-128591000D01*
X195596000Y-128743500D02*
X197006000Y-128743500D01*
X197006000Y-126936500D02*
X195596000Y-126936500D01*
X197808000Y-126936500D02*
X199218000Y-126936500D01*
X199218000Y-128743500D02*
X197808000Y-128743500D01*
X199370500Y-127089000D02*
X199370500Y-128591000D01*
X195443500Y-127089000D02*
G75*
G02*
X195596000Y-126936500I152500J0D01*
G01*
X195596000Y-128743500D02*
G75*
G02*
X195443500Y-128591000I0J152500D01*
G01*
X199218000Y-126936500D02*
G75*
G02*
X199370500Y-127089000I1J-152499D01*
G01*
X199370500Y-128591000D02*
G75*
G02*
X199218000Y-128743500I-152499J-1D01*
G01*
%TO.C,R12*%
D10*
X156654000Y-87890000D02*
X152054000Y-87890000D01*
X156654000Y-91590000D02*
X152054000Y-91590000D01*
%TO.C,R31*%
D11*
X146062000Y-111368500D02*
X146062000Y-112653500D01*
X146062000Y-114890500D02*
X146062000Y-113605500D01*
X147896000Y-111368500D02*
X146062000Y-111368500D01*
X147896000Y-112653500D02*
X147896000Y-111368500D01*
X147896000Y-113605500D02*
X147896000Y-114890500D01*
X147896000Y-114890500D02*
X146062000Y-114890500D01*
%TO.C,C2*%
X129203500Y-133178500D02*
X129203500Y-131768500D01*
X129203500Y-133980500D02*
X129203500Y-135390500D01*
X129356000Y-131616000D02*
X130858000Y-131616000D01*
X129356000Y-135543000D02*
X130858000Y-135543000D01*
X131010500Y-131768500D02*
X131010500Y-133178500D01*
X131010500Y-135390500D02*
X131010500Y-133980500D01*
X129203500Y-131768500D02*
G75*
G02*
X129356000Y-131616000I152499J1D01*
G01*
X129356000Y-135543000D02*
G75*
G02*
X129203500Y-135390500I0J152500D01*
G01*
X130858000Y-131616000D02*
G75*
G02*
X131010500Y-131768500I1J-152499D01*
G01*
X131010500Y-135390500D02*
G75*
G02*
X130858000Y-135543000I-152500J0D01*
G01*
%TO.C,U6*%
X121169500Y-129237500D02*
X124112500Y-129237500D01*
X121169500Y-135889500D02*
X121169500Y-129237500D01*
X124112500Y-129237500D02*
X124112500Y-135889500D01*
X124112500Y-135889500D02*
X121169500Y-135889500D01*
%TO.C,C19*%
X133521500Y-127450500D02*
X133521500Y-128860500D01*
X133521500Y-131072500D02*
X133521500Y-129662500D01*
X135176000Y-127298000D02*
X133674000Y-127298000D01*
X135176000Y-131225000D02*
X133674000Y-131225000D01*
X135328500Y-128860500D02*
X135328500Y-127450500D01*
X135328500Y-129662500D02*
X135328500Y-131072500D01*
X133521500Y-127450500D02*
G75*
G02*
X133674000Y-127298000I152500J0D01*
G01*
X133674000Y-131225000D02*
G75*
G02*
X133521500Y-131072500I-1J152499D01*
G01*
X135176000Y-127298000D02*
G75*
G02*
X135328500Y-127450500I0J-152500D01*
G01*
X135328500Y-131072500D02*
G75*
G02*
X135176000Y-131225000I-152499J-1D01*
G01*
%TO.C,C15*%
X119878500Y-104610000D02*
X119878500Y-106112000D01*
X120031000Y-106264500D02*
X121441000Y-106264500D01*
X121441000Y-104457500D02*
X120031000Y-104457500D01*
X122243000Y-104457500D02*
X123653000Y-104457500D01*
X123653000Y-106264500D02*
X122243000Y-106264500D01*
X123805500Y-104610000D02*
X123805500Y-106112000D01*
X119878500Y-104610000D02*
G75*
G02*
X120031000Y-104457500I152500J0D01*
G01*
X120031000Y-106264500D02*
G75*
G02*
X119878500Y-106112000I0J152500D01*
G01*
X123653000Y-104457500D02*
G75*
G02*
X123805500Y-104610000I1J-152499D01*
G01*
X123805500Y-106112000D02*
G75*
G02*
X123653000Y-106264500I-152499J-1D01*
G01*
%TO.C,D1*%
X162228000Y-85520000D02*
X162241500Y-80670000D01*
D15*
X162832500Y-85520000D02*
X162228000Y-85520000D01*
D11*
X166038000Y-85515500D02*
X166021500Y-80665500D01*
D15*
X166038000Y-85515500D02*
X166038000Y-85520000D01*
X166038000Y-85520000D02*
X165433500Y-85520000D01*
D13*
G36*
X162917500Y-81053000D02*
G01*
X162228000Y-81053000D01*
X162228000Y-80596000D01*
X162917500Y-80596000D01*
X162917500Y-81053000D01*
G37*
G36*
X166026000Y-82374000D02*
G01*
X162238000Y-82374000D01*
X162238000Y-81993000D01*
X166024500Y-81993000D01*
X166026000Y-82374000D01*
G37*
G36*
X166038000Y-81053000D02*
G01*
X165348500Y-81053000D01*
X165348500Y-80596000D01*
X166038000Y-80596000D01*
X166038000Y-81053000D01*
G37*
%TO.C,R21*%
D11*
X133647500Y-101853500D02*
X135481500Y-101853500D01*
X133647500Y-103138500D02*
X133647500Y-101853500D01*
X133647500Y-104090500D02*
X133647500Y-105375500D01*
X133647500Y-105375500D02*
X135481500Y-105375500D01*
X135481500Y-101853500D02*
X135481500Y-103138500D01*
X135481500Y-105375500D02*
X135481500Y-104090500D01*
%TO.C,R22*%
X135775500Y-101820000D02*
X135775500Y-103654000D01*
X135775500Y-103654000D02*
X137060500Y-103654000D01*
X137060500Y-101820000D02*
X135775500Y-101820000D01*
X138012500Y-101820000D02*
X139297500Y-101820000D01*
X139297500Y-101820000D02*
X139297500Y-103654000D01*
X139297500Y-103654000D02*
X138012500Y-103654000D01*
%TO.C,R29*%
X150126000Y-111368500D02*
X150126000Y-112653500D01*
X150126000Y-114890500D02*
X150126000Y-113605500D01*
X151960000Y-111368500D02*
X150126000Y-111368500D01*
X151960000Y-112653500D02*
X151960000Y-111368500D01*
X151960000Y-113605500D02*
X151960000Y-114890500D01*
X151960000Y-114890500D02*
X150126000Y-114890500D01*
%TO.C,J14*%
D12*
X92034000Y-154973000D02*
X104784000Y-154973000D01*
X92034000Y-155842000D02*
X92034000Y-154973000D01*
X92034000Y-158873000D02*
X92034000Y-158004000D01*
X99320500Y-154973000D02*
X99320500Y-158873000D01*
X99809000Y-155623000D02*
X104109000Y-155623000D01*
X99809000Y-158223000D02*
X99809000Y-155623000D01*
X100309000Y-156123000D02*
X100309000Y-157723000D01*
X100309000Y-156123000D02*
X101709000Y-156123000D01*
X100309000Y-157723000D02*
X101709000Y-157723000D01*
X104109000Y-155623000D02*
X104109000Y-155842000D01*
X104109000Y-158004000D02*
X104109000Y-158223000D01*
X104109000Y-158223000D02*
X99809000Y-158223000D01*
X104784000Y-154973000D02*
X104784000Y-155842000D01*
X104784000Y-158004000D02*
X104784000Y-158873000D01*
X104784000Y-158873000D02*
X92034000Y-158873000D01*
X92033500Y-155368500D02*
G75*
G02*
X93163500Y-155874000I649J-1514307D01*
G01*
X93070000Y-157988500D02*
G75*
G02*
X92034000Y-158398500I-1037162J1106834D01*
G01*
%TO.C,C20*%
D11*
X177155500Y-123765000D02*
X177155500Y-122263000D01*
X177308000Y-122110500D02*
X178718000Y-122110500D01*
X178718000Y-123917500D02*
X177308000Y-123917500D01*
X179520000Y-123917500D02*
X180930000Y-123917500D01*
X180930000Y-122110500D02*
X179520000Y-122110500D01*
X181082500Y-123765000D02*
X181082500Y-122263000D01*
X177155500Y-122263000D02*
G75*
G02*
X177308000Y-122110500I152499J1D01*
G01*
X177308000Y-123917500D02*
G75*
G02*
X177155500Y-123765000I-1J152499D01*
G01*
X180930000Y-122110500D02*
G75*
G02*
X181082500Y-122263000I0J-152500D01*
G01*
X181082500Y-123765000D02*
G75*
G02*
X180930000Y-123917500I-152500J0D01*
G01*
%TO.C,U5*%
D16*
X153075000Y-124039000D02*
X159704500Y-124039000D01*
X153075000Y-130693500D02*
X153075000Y-124039000D01*
X159272500Y-130693500D02*
X153075000Y-130693500D01*
X159704500Y-124039000D02*
X159704500Y-130693500D01*
X159704500Y-130693500D02*
X158942500Y-130693500D01*
D17*
X159764500Y-123293500D02*
G75*
G02*
X159767000Y-123293500I1250J199999D01*
G01*
D12*
X159167500Y-124523500D02*
G75*
G02*
X158826500Y-124523500I-170500J0D01*
G01*
X158826500Y-124523500D02*
G75*
G02*
X159167500Y-124523500I170500J0D01*
G01*
%TO.C,J3*%
X91520500Y-122379000D02*
X91520500Y-123212000D01*
X91520500Y-125674000D02*
X91520500Y-127212000D01*
X91520500Y-129674000D02*
X91520500Y-130380000D01*
X91520500Y-130380000D02*
X104632000Y-130380000D01*
X91876000Y-126956000D02*
X91875500Y-126956000D01*
X94669500Y-126575000D02*
X95431500Y-126956000D01*
X94670000Y-126951000D02*
X91876000Y-126956000D01*
X94670000Y-126951000D02*
X94669500Y-126575000D01*
X95431500Y-126956000D02*
X94670000Y-126951000D01*
X98252000Y-123268000D02*
X98252000Y-123212000D01*
X98252000Y-125674000D02*
X98252000Y-123268000D01*
X98252000Y-127268000D02*
X98252000Y-127212000D01*
X98252000Y-129674000D02*
X98252000Y-127268000D01*
X104632000Y-122379000D02*
X91520500Y-122379000D01*
X104632000Y-122379000D02*
X104632000Y-123212000D01*
X104632000Y-123212000D02*
X98252000Y-123212000D01*
X104632000Y-125674000D02*
X98252000Y-125674000D01*
X104632000Y-125674000D02*
X104632000Y-127212000D01*
X104632000Y-127212000D02*
X98252000Y-127212000D01*
X104632000Y-129674000D02*
X98252000Y-129674000D01*
X104632000Y-129674000D02*
X104638500Y-130380000D01*
X100411000Y-124411000D02*
G75*
G02*
X99141000Y-124411000I-635000J0D01*
G01*
X99141000Y-124411000D02*
G75*
G02*
X100411000Y-124411000I635000J0D01*
G01*
X100411000Y-128411000D02*
G75*
G02*
X99141000Y-128411000I-635000J0D01*
G01*
X99141000Y-128411000D02*
G75*
G02*
X100411000Y-128411000I635000J0D01*
G01*
D13*
G36*
X95431500Y-126956000D02*
G01*
X94670000Y-126951000D01*
X94669500Y-126575000D01*
X95431500Y-126956000D01*
G37*
%TO.C,R32*%
D11*
X180858000Y-127256000D02*
X182143000Y-127256000D01*
X180858000Y-129090000D02*
X180858000Y-127256000D01*
X182143000Y-129090000D02*
X180858000Y-129090000D01*
X183095000Y-129090000D02*
X184380000Y-129090000D01*
X184380000Y-127256000D02*
X183095000Y-127256000D01*
X184380000Y-129090000D02*
X184380000Y-127256000D01*
%TO.C,R33*%
X182946000Y-129336000D02*
X182946000Y-131170000D01*
X182946000Y-131170000D02*
X184231000Y-131170000D01*
X184231000Y-129336000D02*
X182946000Y-129336000D01*
X185183000Y-129336000D02*
X186468000Y-129336000D01*
X186468000Y-129336000D02*
X186468000Y-131170000D01*
X186468000Y-131170000D02*
X185183000Y-131170000D01*
%TO.C,R11*%
X183952000Y-84588500D02*
X183952000Y-86422500D01*
X183952000Y-86422500D02*
X185237000Y-86422500D01*
X185237000Y-84588500D02*
X183952000Y-84588500D01*
X186189000Y-84588500D02*
X187474000Y-84588500D01*
X187474000Y-84588500D02*
X187474000Y-86422500D01*
X187474000Y-86422500D02*
X186189000Y-86422500D01*
%TO.C,U8*%
X132651000Y-93649500D02*
X137703000Y-93649500D01*
X132651000Y-96692500D02*
X132651000Y-93649500D01*
X137703000Y-93649500D02*
X137703000Y-96692500D01*
X137703000Y-96692500D02*
X132651000Y-96692500D01*
D14*
X137232000Y-94402000D02*
G75*
G02*
X136932000Y-94402000I-150000J0D01*
G01*
X136932000Y-94402000D02*
G75*
G02*
X137232000Y-94402000I150000J0D01*
G01*
X137978500Y-92398500D02*
G75*
G02*
X137678500Y-92398500I-150000J0D01*
G01*
X137678500Y-92398500D02*
G75*
G02*
X137978500Y-92398500I150000J0D01*
G01*
%TO.C,C6*%
D15*
X188879000Y-73696000D02*
X188879000Y-75781000D01*
X188879000Y-77791000D02*
X188879000Y-79876000D01*
D11*
X191015000Y-71560000D02*
X188879000Y-73696000D01*
X191015000Y-82012000D02*
X188879000Y-79876000D01*
X199331000Y-71560000D02*
X191015000Y-71560000D01*
D15*
X199331000Y-75781000D02*
X199331000Y-71560000D01*
D11*
X199331000Y-82012000D02*
X191015000Y-82012000D01*
D15*
X199331000Y-82012000D02*
X199331000Y-77791000D01*
D13*
G36*
X190500000Y-79309500D02*
G01*
X189264000Y-79309500D01*
X189264000Y-79000500D01*
X190500000Y-79000500D01*
X190500000Y-79309500D01*
G37*
G36*
X190036500Y-80185000D02*
G01*
X189727500Y-80185000D01*
X189727500Y-78125000D01*
X190036500Y-78125000D01*
X190036500Y-80185000D01*
G37*
G36*
X198946000Y-79309500D02*
G01*
X197710000Y-79309500D01*
X197710000Y-79000500D01*
X198946000Y-79000500D01*
X198946000Y-79309500D01*
G37*
%TO.C,R5*%
D11*
X162521000Y-71268000D02*
X163806000Y-71268000D01*
X162521000Y-73102000D02*
X162521000Y-71268000D01*
X163806000Y-73102000D02*
X162521000Y-73102000D01*
X164758000Y-73102000D02*
X166043000Y-73102000D01*
X166043000Y-71268000D02*
X164758000Y-71268000D01*
X166043000Y-73102000D02*
X166043000Y-71268000D01*
%TO.C,R27*%
X157619000Y-111368500D02*
X159453000Y-111368500D01*
X157619000Y-112653500D02*
X157619000Y-111368500D01*
X157619000Y-113605500D02*
X157619000Y-114890500D01*
X157619000Y-114890500D02*
X159453000Y-114890500D01*
X159453000Y-111368500D02*
X159453000Y-112653500D01*
X159453000Y-114890500D02*
X159453000Y-113605500D01*
%TO.C,R26*%
X155572500Y-111368500D02*
X155572500Y-112653500D01*
X155572500Y-114890500D02*
X155572500Y-113605500D01*
X157406500Y-111368500D02*
X155572500Y-111368500D01*
X157406500Y-112653500D02*
X157406500Y-111368500D01*
X157406500Y-113605500D02*
X157406500Y-114890500D01*
X157406500Y-114890500D02*
X155572500Y-114890500D01*
%TO.C,R20*%
X130352500Y-101853500D02*
X130352500Y-103138500D01*
X130352500Y-105375500D02*
X130352500Y-104090500D01*
X132186500Y-101853500D02*
X130352500Y-101853500D01*
X132186500Y-103138500D02*
X132186500Y-101853500D01*
X132186500Y-104090500D02*
X132186500Y-105375500D01*
X132186500Y-105375500D02*
X130352500Y-105375500D01*
%TO.C,U7*%
D12*
X176996000Y-82429000D02*
X181496000Y-82429000D01*
X177013000Y-82433500D02*
X177013000Y-82429000D01*
X177013000Y-84973500D02*
X177013000Y-83584500D01*
X177013000Y-86129000D02*
X177013000Y-86124500D01*
X177013000Y-86129000D02*
X178546000Y-86129000D01*
X181479000Y-82433500D02*
X181479000Y-82429000D01*
X181479000Y-84973500D02*
X181479000Y-83584500D01*
X181479000Y-86129000D02*
X179946000Y-86129000D01*
X181479000Y-86129000D02*
X181479000Y-86124500D01*
X178546000Y-86129000D02*
G75*
G02*
X179947000Y-86128000I700503J-3502D01*
G01*
X182362000Y-86479000D02*
G75*
G02*
X182130000Y-86479000I-116000J0D01*
G01*
X182130000Y-86479000D02*
G75*
G02*
X182362000Y-86479000I116000J0D01*
G01*
%TO.C,R8*%
D11*
X162073000Y-75406000D02*
X163907000Y-75406000D01*
X162073000Y-76691000D02*
X162073000Y-75406000D01*
X162073000Y-77643000D02*
X162073000Y-78928000D01*
X162073000Y-78928000D02*
X163907000Y-78928000D01*
X163907000Y-75406000D02*
X163907000Y-76691000D01*
X163907000Y-78928000D02*
X163907000Y-77643000D01*
%TO.C,R2*%
X147722000Y-83280000D02*
X147722000Y-84565000D01*
X147722000Y-86802000D02*
X147722000Y-85517000D01*
X149556000Y-83280000D02*
X147722000Y-83280000D01*
X149556000Y-84565000D02*
X149556000Y-83280000D01*
X149556000Y-85517000D02*
X149556000Y-86802000D01*
X149556000Y-86802000D02*
X147722000Y-86802000D01*
%TO.C,C10*%
X117721500Y-120402500D02*
X117721500Y-121904500D01*
X117874000Y-122057000D02*
X119284000Y-122057000D01*
X119284000Y-120250000D02*
X117874000Y-120250000D01*
X120086000Y-120250000D02*
X121496000Y-120250000D01*
X121496000Y-122057000D02*
X120086000Y-122057000D01*
X121648500Y-120402500D02*
X121648500Y-121904500D01*
X117721500Y-120402500D02*
G75*
G02*
X117874000Y-120250000I152500J0D01*
G01*
X117874000Y-122057000D02*
G75*
G02*
X117721500Y-121904500I0J152500D01*
G01*
X121496000Y-120250000D02*
G75*
G02*
X121648500Y-120402500I1J-152499D01*
G01*
X121648500Y-121904500D02*
G75*
G02*
X121496000Y-122057000I-152499J-1D01*
G01*
%TO.C,C5*%
D15*
X170845000Y-90102000D02*
X170845000Y-94323000D01*
D11*
X170845000Y-90102000D02*
X179161000Y-90102000D01*
D15*
X170845000Y-96333000D02*
X170845000Y-100554000D01*
D11*
X170845000Y-100554000D02*
X179161000Y-100554000D01*
X179161000Y-90102000D02*
X181297000Y-92238000D01*
X179161000Y-100554000D02*
X181297000Y-98418000D01*
D15*
X181297000Y-94323000D02*
X181297000Y-92238000D01*
X181297000Y-98418000D02*
X181297000Y-96333000D01*
D13*
G36*
X172466000Y-93113500D02*
G01*
X171230000Y-93113500D01*
X171230000Y-92804500D01*
X172466000Y-92804500D01*
X172466000Y-93113500D01*
G37*
G36*
X180448500Y-93989000D02*
G01*
X180139500Y-93989000D01*
X180139500Y-91929000D01*
X180448500Y-91929000D01*
X180448500Y-93989000D01*
G37*
G36*
X180912000Y-93113500D02*
G01*
X179676000Y-93113500D01*
X179676000Y-92804500D01*
X180912000Y-92804500D01*
X180912000Y-93113500D01*
G37*
%TO.C,R4*%
D11*
X150135000Y-103600000D02*
X151969000Y-103600000D01*
X150135000Y-104885000D02*
X150135000Y-103600000D01*
X150135000Y-105837000D02*
X150135000Y-107122000D01*
X150135000Y-107122000D02*
X151969000Y-107122000D01*
X151969000Y-103600000D02*
X151969000Y-104885000D01*
X151969000Y-107122000D02*
X151969000Y-105837000D01*
%TO.C,U1*%
D12*
X175311500Y-71710000D02*
X175311500Y-81862000D01*
X175311500Y-71710000D02*
X183918000Y-71710000D01*
X175311500Y-81862000D02*
X184045000Y-81862000D01*
%TO.C,R16*%
D11*
X128164000Y-101822000D02*
X129998000Y-101822000D01*
X128164000Y-103107000D02*
X128164000Y-101822000D01*
X128164000Y-104059000D02*
X128164000Y-105344000D01*
X128164000Y-105344000D02*
X129998000Y-105344000D01*
X129998000Y-101822000D02*
X129998000Y-103107000D01*
X129998000Y-105344000D02*
X129998000Y-104059000D01*
%TO.C,R19*%
X133647500Y-105659000D02*
X133647500Y-106944000D01*
X133647500Y-109181000D02*
X133647500Y-107896000D01*
X135481500Y-105659000D02*
X133647500Y-105659000D01*
X135481500Y-106944000D02*
X135481500Y-105659000D01*
X135481500Y-107896000D02*
X135481500Y-109181000D01*
X135481500Y-109181000D02*
X133647500Y-109181000D01*
%TO.C,U4*%
X120066500Y-96739000D02*
X123109500Y-96739000D01*
X120066500Y-101791000D02*
X120066500Y-96739000D01*
X123109500Y-96739000D02*
X123109500Y-101791000D01*
X123109500Y-101791000D02*
X120066500Y-101791000D01*
D14*
X118965500Y-96613500D02*
G75*
G02*
X118665500Y-96613500I-150000J0D01*
G01*
X118665500Y-96613500D02*
G75*
G02*
X118965500Y-96613500I150000J0D01*
G01*
X120969000Y-97360000D02*
G75*
G02*
X120669000Y-97360000I-150000J0D01*
G01*
X120669000Y-97360000D02*
G75*
G02*
X120969000Y-97360000I150000J0D01*
G01*
%TO.C,R17*%
D11*
X135086000Y-87977000D02*
X135086000Y-89811000D01*
X135086000Y-89811000D02*
X136371000Y-89811000D01*
X136371000Y-87977000D02*
X135086000Y-87977000D01*
X137323000Y-87977000D02*
X138608000Y-87977000D01*
X138608000Y-87977000D02*
X138608000Y-89811000D01*
X138608000Y-89811000D02*
X137323000Y-89811000D01*
%TO.C,C4*%
X154041500Y-93539000D02*
X154041500Y-92037000D01*
X154194000Y-91884500D02*
X155604000Y-91884500D01*
X155604000Y-93691500D02*
X154194000Y-93691500D01*
X156406000Y-93691500D02*
X157816000Y-93691500D01*
X157816000Y-91884500D02*
X156406000Y-91884500D01*
X157968500Y-93539000D02*
X157968500Y-92037000D01*
X154041500Y-92037000D02*
G75*
G02*
X154194000Y-91884500I152499J1D01*
G01*
X154194000Y-93691500D02*
G75*
G02*
X154041500Y-93539000I-1J152499D01*
G01*
X157816000Y-91884500D02*
G75*
G02*
X157968500Y-92037000I0J-152500D01*
G01*
X157968500Y-93539000D02*
G75*
G02*
X157816000Y-93691500I-152500J0D01*
G01*
%TO.C,FB1*%
D12*
X125652000Y-92394000D02*
X125652000Y-93664000D01*
X125652000Y-94426000D02*
X125652000Y-95569000D01*
X125652000Y-95569000D02*
X125652000Y-95696000D01*
X125652000Y-95696000D02*
X125906000Y-95950000D01*
X125906000Y-92140000D02*
X125652000Y-92394000D01*
X125906000Y-95950000D02*
X127303000Y-95950000D01*
X126033000Y-92140000D02*
X125906000Y-92140000D01*
X127303000Y-95950000D02*
X127430000Y-95950000D01*
X127430000Y-92140000D02*
X126033000Y-92140000D01*
X127430000Y-95950000D02*
X127684000Y-95696000D01*
X127684000Y-92394000D02*
X127430000Y-92140000D01*
X127684000Y-92521000D02*
X127684000Y-92394000D01*
X127684000Y-93664000D02*
X127684000Y-92521000D01*
X127684000Y-95696000D02*
X127684000Y-94426000D01*
%TO.C,C13*%
D11*
X115223500Y-97975000D02*
X115223500Y-96565000D01*
X115223500Y-98777000D02*
X115223500Y-100187000D01*
X115376000Y-96412500D02*
X116878000Y-96412500D01*
X115376000Y-100339500D02*
X116878000Y-100339500D01*
X117030500Y-96565000D02*
X117030500Y-97975000D01*
X117030500Y-100187000D02*
X117030500Y-98777000D01*
X115223500Y-96565000D02*
G75*
G02*
X115376000Y-96412500I152499J1D01*
G01*
X115376000Y-100339500D02*
G75*
G02*
X115223500Y-100187000I0J152500D01*
G01*
X116878000Y-96412500D02*
G75*
G02*
X117030500Y-96565000I1J-152499D01*
G01*
X117030500Y-100187000D02*
G75*
G02*
X116878000Y-100339500I-152500J0D01*
G01*
%TO.C,C14*%
X139817500Y-71971000D02*
X139817500Y-73473000D01*
X139970000Y-73625500D02*
X141380000Y-73625500D01*
X141380000Y-71818500D02*
X139970000Y-71818500D01*
X142182000Y-71818500D02*
X143592000Y-71818500D01*
X143592000Y-73625500D02*
X142182000Y-73625500D01*
X143744500Y-71971000D02*
X143744500Y-73473000D01*
X139817500Y-71971000D02*
G75*
G02*
X139970000Y-71818500I152500J0D01*
G01*
X139970000Y-73625500D02*
G75*
G02*
X139817500Y-73473000I0J152500D01*
G01*
X143592000Y-71818500D02*
G75*
G02*
X143744500Y-71971000I1J-152499D01*
G01*
X143744500Y-73473000D02*
G75*
G02*
X143592000Y-73625500I-152499J-1D01*
G01*
%TO.C,R7*%
X164232000Y-75406000D02*
X166066000Y-75406000D01*
X164232000Y-76691000D02*
X164232000Y-75406000D01*
X164232000Y-77643000D02*
X164232000Y-78928000D01*
X164232000Y-78928000D02*
X166066000Y-78928000D01*
X166066000Y-75406000D02*
X166066000Y-76691000D01*
X166066000Y-78928000D02*
X166066000Y-77643000D01*
%TO.C,C1*%
X124631500Y-125545500D02*
X124631500Y-126955500D01*
X124631500Y-129167500D02*
X124631500Y-127757500D01*
X126286000Y-125393000D02*
X124784000Y-125393000D01*
X126286000Y-129320000D02*
X124784000Y-129320000D01*
X126438500Y-126955500D02*
X126438500Y-125545500D01*
X126438500Y-127757500D02*
X126438500Y-129167500D01*
X124631500Y-125545500D02*
G75*
G02*
X124784000Y-125393000I152500J0D01*
G01*
X124784000Y-129320000D02*
G75*
G02*
X124631500Y-129167500I-1J152499D01*
G01*
X126286000Y-125393000D02*
G75*
G02*
X126438500Y-125545500I0J-152500D01*
G01*
X126438500Y-129167500D02*
G75*
G02*
X126286000Y-129320000I-152499J-1D01*
G01*
%TO.C,J4*%
D12*
X191610000Y-108480000D02*
X191603500Y-107774000D01*
X191610000Y-108480000D02*
X197990000Y-108480000D01*
X191610000Y-110942000D02*
X197990000Y-110942000D01*
X191610000Y-112480000D02*
X191610000Y-110942000D01*
X191610000Y-112480000D02*
X197990000Y-112480000D01*
X191610000Y-114942000D02*
X197990000Y-114942000D01*
X191610000Y-115775000D02*
X191610000Y-114942000D01*
X191610000Y-115775000D02*
X204721500Y-115775000D01*
X197990000Y-108480000D02*
X197990000Y-110886000D01*
X197990000Y-110886000D02*
X197990000Y-110942000D01*
X197990000Y-112480000D02*
X197990000Y-114886000D01*
X197990000Y-114886000D02*
X197990000Y-114942000D01*
X200810500Y-111198000D02*
X201572000Y-111203000D01*
X201572000Y-111203000D02*
X201572500Y-111579000D01*
X201572000Y-111203000D02*
X204366000Y-111198000D01*
X201572500Y-111579000D02*
X200810500Y-111198000D01*
X204366000Y-111198000D02*
X204366500Y-111198000D01*
X204721500Y-107774000D02*
X191610000Y-107774000D01*
X204721500Y-108480000D02*
X204721500Y-107774000D01*
X204721500Y-112480000D02*
X204721500Y-110942000D01*
X204721500Y-115775000D02*
X204721500Y-114942000D01*
X197101000Y-109743000D02*
G75*
G02*
X195831000Y-109743000I-635000J0D01*
G01*
X195831000Y-109743000D02*
G75*
G02*
X197101000Y-109743000I635000J0D01*
G01*
X197101000Y-113743000D02*
G75*
G02*
X195831000Y-113743000I-635000J0D01*
G01*
X195831000Y-113743000D02*
G75*
G02*
X197101000Y-113743000I635000J0D01*
G01*
D13*
G36*
X201572000Y-111203000D02*
G01*
X201572500Y-111579000D01*
X200810500Y-111198000D01*
X201572000Y-111203000D01*
G37*
%TO.C,R6*%
D11*
X162499000Y-73329000D02*
X163784000Y-73329000D01*
X162499000Y-75163000D02*
X162499000Y-73329000D01*
X163784000Y-75163000D02*
X162499000Y-75163000D01*
X164736000Y-75163000D02*
X166021000Y-75163000D01*
X166021000Y-73329000D02*
X164736000Y-73329000D01*
X166021000Y-75163000D02*
X166021000Y-73329000D01*
%TO.C,U10*%
X126358500Y-152691000D02*
X128501500Y-152691000D01*
X126358500Y-155843000D02*
X126358500Y-152691000D01*
X128501500Y-152691000D02*
X128501500Y-155843000D01*
X128501500Y-155843000D02*
X126358500Y-155843000D01*
D14*
X127899000Y-155242000D02*
G75*
G02*
X127599000Y-155242000I-150000J0D01*
G01*
X127599000Y-155242000D02*
G75*
G02*
X127899000Y-155242000I150000J0D01*
G01*
X129711500Y-155876500D02*
G75*
G02*
X129410500Y-155876500I-150500J0D01*
G01*
X129410500Y-155876500D02*
G75*
G02*
X129711500Y-155876500I150500J0D01*
G01*
%TO.C,R15*%
D11*
X126366000Y-105587000D02*
X126366000Y-107421000D01*
X126366000Y-107421000D02*
X127651000Y-107421000D01*
X127651000Y-105587000D02*
X126366000Y-105587000D01*
X128603000Y-105587000D02*
X129888000Y-105587000D01*
X129888000Y-105587000D02*
X129888000Y-107421000D01*
X129888000Y-107421000D02*
X128603000Y-107421000D01*
%TO.C,R13*%
X113051000Y-96742000D02*
X113051000Y-98027000D01*
X113051000Y-100264000D02*
X113051000Y-98979000D01*
X114885000Y-96742000D02*
X113051000Y-96742000D01*
X114885000Y-98027000D02*
X114885000Y-96742000D01*
X114885000Y-98979000D02*
X114885000Y-100264000D01*
X114885000Y-100264000D02*
X113051000Y-100264000D01*
%TO.C,D2*%
D15*
X158079500Y-81006000D02*
X158684000Y-81006000D01*
X158079500Y-81010500D02*
X158079500Y-81006000D01*
D11*
X158079500Y-81010500D02*
X158096000Y-85860500D01*
D15*
X161285000Y-81006000D02*
X161889500Y-81006000D01*
D11*
X161889500Y-81006000D02*
X161876000Y-85856000D01*
D13*
G36*
X158769000Y-85930000D02*
G01*
X158079500Y-85930000D01*
X158079500Y-85473000D01*
X158769000Y-85473000D01*
X158769000Y-85930000D01*
G37*
G36*
X161879500Y-84533000D02*
G01*
X158093000Y-84533000D01*
X158091500Y-84152000D01*
X161879500Y-84152000D01*
X161879500Y-84533000D01*
G37*
G36*
X161889500Y-85930000D02*
G01*
X161200000Y-85930000D01*
X161200000Y-85473000D01*
X161889500Y-85473000D01*
X161889500Y-85930000D01*
G37*
%TO.C,J8*%
D12*
X142844000Y-148866000D02*
X143677000Y-148866000D01*
X142844000Y-162866000D02*
X142844000Y-148866000D01*
X142844000Y-162866000D02*
X143677000Y-162866000D01*
X143677000Y-148866000D02*
X143677000Y-155246000D01*
X143733000Y-155246000D02*
X143677000Y-155246000D01*
X146139000Y-148866000D02*
X146139000Y-155246000D01*
X146139000Y-148866000D02*
X147677000Y-148866000D01*
X146139000Y-155246000D02*
X143733000Y-155246000D01*
X146139000Y-162866000D02*
X147677000Y-162866000D01*
X146178000Y-158167000D02*
X147448000Y-158167000D01*
X146567000Y-158167000D02*
X146567000Y-161977000D01*
X146567000Y-161977000D02*
X147067000Y-161977000D01*
X146813000Y-157532000D02*
X146178000Y-158167000D01*
X146813000Y-157532000D02*
X146813000Y-161977000D01*
X146844000Y-148866000D02*
X147677000Y-148866000D01*
X146844000Y-162866000D02*
X147677000Y-162866000D01*
X146939000Y-157659000D02*
X146812000Y-157532000D01*
X147067000Y-158040000D02*
X146940000Y-157913000D01*
X147067000Y-161977000D02*
X147067000Y-158040000D01*
X147448000Y-158167000D02*
X146939000Y-157659000D01*
X147677000Y-148866000D02*
X147677000Y-155246000D01*
X147677000Y-148866000D02*
X147677000Y-155246000D01*
X147733000Y-155246000D02*
X147677000Y-155246000D01*
X147733000Y-155246000D02*
X147677000Y-155246000D01*
X150139000Y-148866000D02*
X150139000Y-155246000D01*
X150139000Y-148866000D02*
X150139000Y-155246000D01*
X150139000Y-148866000D02*
X150972000Y-148866000D01*
X150139000Y-148866000D02*
X151677000Y-148866000D01*
X150139000Y-155246000D02*
X147733000Y-155246000D01*
X150139000Y-155246000D02*
X147733000Y-155246000D01*
X150139000Y-162866000D02*
X150972000Y-162866000D01*
X150139000Y-162866000D02*
X151677000Y-162866000D01*
X150178000Y-158167000D02*
X151448000Y-158167000D01*
X150567000Y-158167000D02*
X150567000Y-161977000D01*
X150567000Y-161977000D02*
X151067000Y-161977000D01*
X150813000Y-157532000D02*
X150178000Y-158167000D01*
X150813000Y-157532000D02*
X150813000Y-161977000D01*
X150939000Y-157659000D02*
X150812000Y-157532000D01*
X151067000Y-158040000D02*
X150940000Y-157913000D01*
X151067000Y-161977000D02*
X151067000Y-158040000D01*
X151448000Y-158167000D02*
X150939000Y-157659000D01*
X151677000Y-148866000D02*
X151677000Y-155246000D01*
X151733000Y-155246000D02*
X151677000Y-155246000D01*
X154139000Y-148866000D02*
X154139000Y-155246000D01*
X154139000Y-148866000D02*
X154972000Y-148866000D01*
X154139000Y-155246000D02*
X151733000Y-155246000D01*
X154139000Y-162866000D02*
X154972000Y-162866000D01*
X154972000Y-162881000D02*
X154972000Y-148881000D01*
X145511000Y-153722000D02*
G75*
G02*
X144241000Y-153722000I-635000J0D01*
G01*
X144241000Y-153722000D02*
G75*
G02*
X145511000Y-153722000I635000J0D01*
G01*
X149511000Y-153722000D02*
G75*
G02*
X148241000Y-153722000I-635000J0D01*
G01*
X148241000Y-153722000D02*
G75*
G02*
X149511000Y-153722000I635000J0D01*
G01*
X149511000Y-153722000D02*
G75*
G02*
X148241000Y-153722000I-635000J0D01*
G01*
X148241000Y-153722000D02*
G75*
G02*
X149511000Y-153722000I635000J0D01*
G01*
X153511000Y-153722000D02*
G75*
G02*
X152241000Y-153722000I-635000J0D01*
G01*
X152241000Y-153722000D02*
G75*
G02*
X153511000Y-153722000I635000J0D01*
G01*
D13*
G36*
X146813000Y-157659000D02*
G01*
X147321000Y-158167000D01*
X146241500Y-158103500D01*
X146813000Y-157532000D01*
X146813000Y-157659000D01*
G37*
G36*
X150813000Y-157659000D02*
G01*
X151321000Y-158167000D01*
X150241500Y-158103500D01*
X150813000Y-157532000D01*
X150813000Y-157659000D01*
G37*
%TO.C,FB3*%
D12*
X131250000Y-131888000D02*
X131250000Y-133158000D01*
X131250000Y-133920000D02*
X131250000Y-135063000D01*
X131250000Y-135063000D02*
X131250000Y-135190000D01*
X131250000Y-135190000D02*
X131504000Y-135444000D01*
X131504000Y-131634000D02*
X131250000Y-131888000D01*
X131504000Y-135444000D02*
X132901000Y-135444000D01*
X131631000Y-131634000D02*
X131504000Y-131634000D01*
X132901000Y-135444000D02*
X133028000Y-135444000D01*
X133028000Y-131634000D02*
X131631000Y-131634000D01*
X133028000Y-135444000D02*
X133282000Y-135190000D01*
X133282000Y-131888000D02*
X133028000Y-131634000D01*
X133282000Y-132015000D02*
X133282000Y-131888000D01*
X133282000Y-133158000D02*
X133282000Y-132015000D01*
X133282000Y-135190000D02*
X133282000Y-133920000D01*
%TO.C,FB2*%
X131337000Y-84004500D02*
X131337000Y-85274500D01*
X131337000Y-86036500D02*
X131337000Y-87179500D01*
X131337000Y-87179500D02*
X131337000Y-87306500D01*
X131337000Y-87306500D02*
X131591000Y-87560500D01*
X131591000Y-83750500D02*
X131337000Y-84004500D01*
X131591000Y-87560500D02*
X132988000Y-87560500D01*
X131718000Y-83750500D02*
X131591000Y-83750500D01*
X132988000Y-87560500D02*
X133115000Y-87560500D01*
X133115000Y-83750500D02*
X131718000Y-83750500D01*
X133115000Y-87560500D02*
X133369000Y-87306500D01*
X133369000Y-84004500D02*
X133115000Y-83750500D01*
X133369000Y-84131500D02*
X133369000Y-84004500D01*
X133369000Y-85274500D02*
X133369000Y-84131500D01*
X133369000Y-87306500D02*
X133369000Y-86036500D01*
%TO.C,C25*%
D11*
X133355500Y-139353000D02*
X133355500Y-137943000D01*
X133355500Y-140155000D02*
X133355500Y-141565000D01*
X133508000Y-137790500D02*
X135010000Y-137790500D01*
X133508000Y-141717500D02*
X135010000Y-141717500D01*
X135162500Y-137943000D02*
X135162500Y-139353000D01*
X135162500Y-141565000D02*
X135162500Y-140155000D01*
X133355500Y-137943000D02*
G75*
G02*
X133508000Y-137790500I152499J1D01*
G01*
X133508000Y-141717500D02*
G75*
G02*
X133355500Y-141565000I0J152500D01*
G01*
X135010000Y-137790500D02*
G75*
G02*
X135162500Y-137943000I1J-152499D01*
G01*
X135162500Y-141565000D02*
G75*
G02*
X135010000Y-141717500I-152500J0D01*
G01*
%TO.C,R25*%
X163216000Y-98647000D02*
X165050000Y-98647000D01*
X163216000Y-99932000D02*
X163216000Y-98647000D01*
X163216000Y-100884000D02*
X163216000Y-102169000D01*
X163216000Y-102169000D02*
X165050000Y-102169000D01*
X165050000Y-98647000D02*
X165050000Y-99932000D01*
X165050000Y-102169000D02*
X165050000Y-100884000D01*
%TO.C,J2*%
D12*
X108158000Y-52895000D02*
X108158000Y-66895000D01*
X108991000Y-52910000D02*
X108158000Y-52910000D01*
X108991000Y-60530000D02*
X111397000Y-60530000D01*
X108991000Y-66910000D02*
X108158000Y-66910000D01*
X108991000Y-66910000D02*
X108991000Y-60530000D01*
X111397000Y-60530000D02*
X111453000Y-60530000D01*
X111453000Y-66910000D02*
X111453000Y-60530000D01*
X111682000Y-57609000D02*
X112191000Y-58117000D01*
X112063000Y-53799000D02*
X112063000Y-57736000D01*
X112063000Y-57736000D02*
X112190000Y-57863000D01*
X112191000Y-58117000D02*
X112318000Y-58244000D01*
X112317000Y-58244000D02*
X112317000Y-53799000D01*
X112317000Y-58244000D02*
X112952000Y-57609000D01*
X112563000Y-53799000D02*
X112063000Y-53799000D01*
X112563000Y-57609000D02*
X112563000Y-53799000D01*
X112952000Y-57609000D02*
X111682000Y-57609000D01*
X112991000Y-52910000D02*
X111453000Y-52910000D01*
X112991000Y-52910000D02*
X112158000Y-52910000D01*
X112991000Y-60530000D02*
X115397000Y-60530000D01*
X112991000Y-60530000D02*
X115397000Y-60530000D01*
X112991000Y-66910000D02*
X111453000Y-66910000D01*
X112991000Y-66910000D02*
X112158000Y-66910000D01*
X112991000Y-66910000D02*
X112991000Y-60530000D01*
X112991000Y-66910000D02*
X112991000Y-60530000D01*
X115397000Y-60530000D02*
X115453000Y-60530000D01*
X115397000Y-60530000D02*
X115453000Y-60530000D01*
X115453000Y-66910000D02*
X115453000Y-60530000D01*
X115453000Y-66910000D02*
X115453000Y-60530000D01*
X115682000Y-57609000D02*
X116191000Y-58117000D01*
X116063000Y-53799000D02*
X116063000Y-57736000D01*
X116063000Y-57736000D02*
X116190000Y-57863000D01*
X116191000Y-58117000D02*
X116318000Y-58244000D01*
X116286000Y-52910000D02*
X115453000Y-52910000D01*
X116286000Y-66910000D02*
X115453000Y-66910000D01*
X116317000Y-58244000D02*
X116317000Y-53799000D01*
X116317000Y-58244000D02*
X116952000Y-57609000D01*
X116563000Y-53799000D02*
X116063000Y-53799000D01*
X116563000Y-57609000D02*
X116563000Y-53799000D01*
X116952000Y-57609000D02*
X115682000Y-57609000D01*
X116991000Y-52910000D02*
X115453000Y-52910000D01*
X116991000Y-60530000D02*
X119397000Y-60530000D01*
X116991000Y-66910000D02*
X115453000Y-66910000D01*
X116991000Y-66910000D02*
X116991000Y-60530000D01*
X119397000Y-60530000D02*
X119453000Y-60530000D01*
X119453000Y-66910000D02*
X119453000Y-60530000D01*
X120286000Y-52910000D02*
X119453000Y-52910000D01*
X120286000Y-52910000D02*
X120286000Y-66910000D01*
X120286000Y-66910000D02*
X119453000Y-66910000D01*
X110889000Y-62054000D02*
G75*
G02*
X109619000Y-62054000I-635000J0D01*
G01*
X109619000Y-62054000D02*
G75*
G02*
X110889000Y-62054000I635000J0D01*
G01*
X114889000Y-62054000D02*
G75*
G02*
X113619000Y-62054000I-635000J0D01*
G01*
X113619000Y-62054000D02*
G75*
G02*
X114889000Y-62054000I635000J0D01*
G01*
X114889000Y-62054000D02*
G75*
G02*
X113619000Y-62054000I-635000J0D01*
G01*
X113619000Y-62054000D02*
G75*
G02*
X114889000Y-62054000I635000J0D01*
G01*
X118889000Y-62054000D02*
G75*
G02*
X117619000Y-62054000I-635000J0D01*
G01*
X117619000Y-62054000D02*
G75*
G02*
X118889000Y-62054000I635000J0D01*
G01*
D13*
G36*
X112888500Y-57672500D02*
G01*
X112317000Y-58244000D01*
X112317000Y-58117000D01*
X111809000Y-57609000D01*
X112888500Y-57672500D01*
G37*
G36*
X116888500Y-57672500D02*
G01*
X116317000Y-58244000D01*
X116317000Y-58117000D01*
X115809000Y-57609000D01*
X116888500Y-57672500D01*
G37*
%TO.C,C9*%
D11*
X125466500Y-114748000D02*
X125466500Y-113246000D01*
X125619000Y-113093500D02*
X127029000Y-113093500D01*
X127029000Y-114900500D02*
X125619000Y-114900500D01*
X127831000Y-114900500D02*
X129241000Y-114900500D01*
X129241000Y-113093500D02*
X127831000Y-113093500D01*
X129393500Y-114748000D02*
X129393500Y-113246000D01*
X125466500Y-113246000D02*
G75*
G02*
X125619000Y-113093500I152499J1D01*
G01*
X125619000Y-114900500D02*
G75*
G02*
X125466500Y-114748000I-1J152499D01*
G01*
X129241000Y-113093500D02*
G75*
G02*
X129393500Y-113246000I0J-152500D01*
G01*
X129393500Y-114748000D02*
G75*
G02*
X129241000Y-114900500I-152500J0D01*
G01*
%TO.C,R1*%
X125751000Y-84423000D02*
X127585000Y-84423000D01*
X125751000Y-85708000D02*
X125751000Y-84423000D01*
X125751000Y-86660000D02*
X125751000Y-87945000D01*
X125751000Y-87945000D02*
X127585000Y-87945000D01*
X127585000Y-84423000D02*
X127585000Y-85708000D01*
X127585000Y-87945000D02*
X127585000Y-86660000D01*
%TO.C,R28*%
X152128500Y-111390500D02*
X153962500Y-111390500D01*
X152128500Y-112675500D02*
X152128500Y-111390500D01*
X152128500Y-113627500D02*
X152128500Y-114912500D01*
X152128500Y-114912500D02*
X153962500Y-114912500D01*
X153962500Y-111390500D02*
X153962500Y-112675500D01*
X153962500Y-114912500D02*
X153962500Y-113627500D01*
%TO.C,C23*%
X131357500Y-139353000D02*
X131357500Y-137943000D01*
X131357500Y-140155000D02*
X131357500Y-141565000D01*
X131510000Y-137790500D02*
X133012000Y-137790500D01*
X131510000Y-141717500D02*
X133012000Y-141717500D01*
X133164500Y-137943000D02*
X133164500Y-139353000D01*
X133164500Y-141565000D02*
X133164500Y-140155000D01*
X131357500Y-137943000D02*
G75*
G02*
X131510000Y-137790500I152499J1D01*
G01*
X131510000Y-141717500D02*
G75*
G02*
X131357500Y-141565000I0J152500D01*
G01*
X133012000Y-137790500D02*
G75*
G02*
X133164500Y-137943000I1J-152499D01*
G01*
X133164500Y-141565000D02*
G75*
G02*
X133012000Y-141717500I-152500J0D01*
G01*
%TO.C,C22*%
X129276500Y-135852000D02*
X129276500Y-137354000D01*
X129429000Y-137506500D02*
X130839000Y-137506500D01*
X130839000Y-135699500D02*
X129429000Y-135699500D01*
X131641000Y-135699500D02*
X133051000Y-135699500D01*
X133051000Y-137506500D02*
X131641000Y-137506500D01*
X133203500Y-135852000D02*
X133203500Y-137354000D01*
X129276500Y-135852000D02*
G75*
G02*
X129429000Y-135699500I152500J0D01*
G01*
X129429000Y-137506500D02*
G75*
G02*
X129276500Y-137354000I0J152500D01*
G01*
X133051000Y-135699500D02*
G75*
G02*
X133203500Y-135852000I1J-152499D01*
G01*
X133203500Y-137354000D02*
G75*
G02*
X133051000Y-137506500I-152499J-1D01*
G01*
%TO.C,D4*%
X149782000Y-85520000D02*
X149795500Y-80670000D01*
D15*
X150386500Y-85520000D02*
X149782000Y-85520000D01*
D11*
X153592000Y-85515500D02*
X153575500Y-80665500D01*
D15*
X153592000Y-85515500D02*
X153592000Y-85520000D01*
X153592000Y-85520000D02*
X152987500Y-85520000D01*
D13*
G36*
X150471500Y-81053000D02*
G01*
X149782000Y-81053000D01*
X149782000Y-80596000D01*
X150471500Y-80596000D01*
X150471500Y-81053000D01*
G37*
G36*
X153580000Y-82374000D02*
G01*
X149792000Y-82374000D01*
X149792000Y-81993000D01*
X153578500Y-81993000D01*
X153580000Y-82374000D01*
G37*
G36*
X153592000Y-81053000D02*
G01*
X152902500Y-81053000D01*
X152902500Y-80596000D01*
X153592000Y-80596000D01*
X153592000Y-81053000D01*
G37*
%TO.C,R30*%
D11*
X148094000Y-111368500D02*
X149928000Y-111368500D01*
X148094000Y-112653500D02*
X148094000Y-111368500D01*
X148094000Y-113605500D02*
X148094000Y-114890500D01*
X148094000Y-114890500D02*
X149928000Y-114890500D01*
X149928000Y-111368500D02*
X149928000Y-112653500D01*
X149928000Y-114890500D02*
X149928000Y-113605500D01*
%TO.C,R9*%
X159152000Y-75406000D02*
X160986000Y-75406000D01*
X159152000Y-76691000D02*
X159152000Y-75406000D01*
X159152000Y-77643000D02*
X159152000Y-78928000D01*
X159152000Y-78928000D02*
X160986000Y-78928000D01*
X160986000Y-75406000D02*
X160986000Y-76691000D01*
X160986000Y-78928000D02*
X160986000Y-77643000D01*
%TO.C,J12*%
D12*
X128704000Y-160352000D02*
X128704000Y-162892000D01*
X128704000Y-162892000D02*
X141904000Y-162892000D01*
X139065500Y-162892000D02*
X139065500Y-160352000D01*
X141904000Y-160352000D02*
X128704000Y-160352000D01*
X141904000Y-162892000D02*
X141904000Y-160352000D01*
%TO.C,J6*%
X91601000Y-110536000D02*
X105601000Y-110536000D01*
X91616000Y-98408000D02*
X91616000Y-99241000D01*
X91616000Y-98408000D02*
X105616000Y-98408000D01*
X91616000Y-101703000D02*
X91616000Y-103241000D01*
X91616000Y-102408000D02*
X91616000Y-103241000D01*
X91616000Y-105703000D02*
X91616000Y-106536000D01*
X91616000Y-105703000D02*
X91616000Y-107241000D01*
X91616000Y-109703000D02*
X91616000Y-110536000D01*
X92505000Y-102131000D02*
X92505000Y-102631000D01*
X92505000Y-102631000D02*
X96442000Y-102631000D01*
X92505000Y-106131000D02*
X92505000Y-106631000D01*
X92505000Y-106631000D02*
X96442000Y-106631000D01*
X96315000Y-101742000D02*
X96315000Y-103012000D01*
X96315000Y-102131000D02*
X92505000Y-102131000D01*
X96315000Y-103012000D02*
X96823000Y-102503000D01*
X96315000Y-105742000D02*
X96315000Y-107012000D01*
X96315000Y-106131000D02*
X92505000Y-106131000D01*
X96315000Y-107012000D02*
X96823000Y-106503000D01*
X96442000Y-102631000D02*
X96569000Y-102504000D01*
X96442000Y-106631000D02*
X96569000Y-106504000D01*
X96823000Y-102503000D02*
X96950000Y-102376000D01*
X96823000Y-106503000D02*
X96950000Y-106376000D01*
X96950000Y-102377000D02*
X92505000Y-102377000D01*
X96950000Y-102377000D02*
X96315000Y-101742000D01*
X96950000Y-106377000D02*
X92505000Y-106377000D01*
X96950000Y-106377000D02*
X96315000Y-105742000D01*
X99236000Y-99297000D02*
X99236000Y-99241000D01*
X99236000Y-101703000D02*
X99236000Y-99297000D01*
X99236000Y-103297000D02*
X99236000Y-103241000D01*
X99236000Y-103297000D02*
X99236000Y-103241000D01*
X99236000Y-105703000D02*
X99236000Y-103297000D01*
X99236000Y-105703000D02*
X99236000Y-103297000D01*
X99236000Y-107297000D02*
X99236000Y-107241000D01*
X99236000Y-109703000D02*
X99236000Y-107297000D01*
X105616000Y-98408000D02*
X105616000Y-99241000D01*
X105616000Y-99241000D02*
X99236000Y-99241000D01*
X105616000Y-101703000D02*
X99236000Y-101703000D01*
X105616000Y-101703000D02*
X105616000Y-103241000D01*
X105616000Y-102408000D02*
X105616000Y-103241000D01*
X105616000Y-103241000D02*
X99236000Y-103241000D01*
X105616000Y-103241000D02*
X99236000Y-103241000D01*
X105616000Y-105703000D02*
X99236000Y-105703000D01*
X105616000Y-105703000D02*
X99236000Y-105703000D01*
X105616000Y-105703000D02*
X105616000Y-106536000D01*
X105616000Y-105703000D02*
X105616000Y-107241000D01*
X105616000Y-107241000D02*
X99236000Y-107241000D01*
X105616000Y-109703000D02*
X99236000Y-109703000D01*
X105616000Y-109703000D02*
X105616000Y-110536000D01*
X101395000Y-100440000D02*
G75*
G02*
X100125000Y-100440000I-635000J0D01*
G01*
X100125000Y-100440000D02*
G75*
G02*
X101395000Y-100440000I635000J0D01*
G01*
X101395000Y-104440000D02*
G75*
G02*
X100125000Y-104440000I-635000J0D01*
G01*
X100125000Y-104440000D02*
G75*
G02*
X101395000Y-104440000I635000J0D01*
G01*
X101395000Y-104440000D02*
G75*
G02*
X100125000Y-104440000I-635000J0D01*
G01*
X100125000Y-104440000D02*
G75*
G02*
X101395000Y-104440000I635000J0D01*
G01*
X101395000Y-108440000D02*
G75*
G02*
X100125000Y-108440000I-635000J0D01*
G01*
X100125000Y-108440000D02*
G75*
G02*
X101395000Y-108440000I635000J0D01*
G01*
D13*
G36*
X96950000Y-102377000D02*
G01*
X96823000Y-102377000D01*
X96315000Y-102885000D01*
X96378500Y-101805500D01*
X96950000Y-102377000D01*
G37*
G36*
X96950000Y-106377000D02*
G01*
X96823000Y-106377000D01*
X96315000Y-106885000D01*
X96378500Y-105805500D01*
X96950000Y-106377000D01*
G37*
%TO.C,J1*%
D12*
X138511000Y-53037000D02*
X138511000Y-67037000D01*
X139344000Y-53052000D02*
X138511000Y-53052000D01*
X139344000Y-60672000D02*
X141750000Y-60672000D01*
X139344000Y-67052000D02*
X138511000Y-67052000D01*
X139344000Y-67052000D02*
X139344000Y-60672000D01*
X141750000Y-60672000D02*
X141806000Y-60672000D01*
X141806000Y-67052000D02*
X141806000Y-60672000D01*
X142035000Y-57751000D02*
X142544000Y-58259000D01*
X142416000Y-53941000D02*
X142416000Y-57878000D01*
X142416000Y-57878000D02*
X142543000Y-58005000D01*
X142544000Y-58259000D02*
X142671000Y-58386000D01*
X142670000Y-58386000D02*
X142670000Y-53941000D01*
X142670000Y-58386000D02*
X143305000Y-57751000D01*
X142916000Y-53941000D02*
X142416000Y-53941000D01*
X142916000Y-57751000D02*
X142916000Y-53941000D01*
X143305000Y-57751000D02*
X142035000Y-57751000D01*
X143344000Y-53052000D02*
X141806000Y-53052000D01*
X143344000Y-53052000D02*
X142511000Y-53052000D01*
X143344000Y-60672000D02*
X145750000Y-60672000D01*
X143344000Y-60672000D02*
X145750000Y-60672000D01*
X143344000Y-67052000D02*
X141806000Y-67052000D01*
X143344000Y-67052000D02*
X142511000Y-67052000D01*
X143344000Y-67052000D02*
X143344000Y-60672000D01*
X143344000Y-67052000D02*
X143344000Y-60672000D01*
X145750000Y-60672000D02*
X145806000Y-60672000D01*
X145750000Y-60672000D02*
X145806000Y-60672000D01*
X145806000Y-67052000D02*
X145806000Y-60672000D01*
X145806000Y-67052000D02*
X145806000Y-60672000D01*
X146035000Y-57751000D02*
X146544000Y-58259000D01*
X146416000Y-53941000D02*
X146416000Y-57878000D01*
X146416000Y-57878000D02*
X146543000Y-58005000D01*
X146544000Y-58259000D02*
X146671000Y-58386000D01*
X146639000Y-53052000D02*
X145806000Y-53052000D01*
X146639000Y-67052000D02*
X145806000Y-67052000D01*
X146670000Y-58386000D02*
X146670000Y-53941000D01*
X146670000Y-58386000D02*
X147305000Y-57751000D01*
X146916000Y-53941000D02*
X146416000Y-53941000D01*
X146916000Y-57751000D02*
X146916000Y-53941000D01*
X147305000Y-57751000D02*
X146035000Y-57751000D01*
X147344000Y-53052000D02*
X145806000Y-53052000D01*
X147344000Y-60672000D02*
X149750000Y-60672000D01*
X147344000Y-67052000D02*
X145806000Y-67052000D01*
X147344000Y-67052000D02*
X147344000Y-60672000D01*
X149750000Y-60672000D02*
X149806000Y-60672000D01*
X149806000Y-67052000D02*
X149806000Y-60672000D01*
X150639000Y-53052000D02*
X149806000Y-53052000D01*
X150639000Y-53052000D02*
X150639000Y-67052000D01*
X150639000Y-67052000D02*
X149806000Y-67052000D01*
X141242000Y-62196000D02*
G75*
G02*
X139972000Y-62196000I-635000J0D01*
G01*
X139972000Y-62196000D02*
G75*
G02*
X141242000Y-62196000I635000J0D01*
G01*
X145242000Y-62196000D02*
G75*
G02*
X143972000Y-62196000I-635000J0D01*
G01*
X143972000Y-62196000D02*
G75*
G02*
X145242000Y-62196000I635000J0D01*
G01*
X145242000Y-62196000D02*
G75*
G02*
X143972000Y-62196000I-635000J0D01*
G01*
X143972000Y-62196000D02*
G75*
G02*
X145242000Y-62196000I635000J0D01*
G01*
X149242000Y-62196000D02*
G75*
G02*
X147972000Y-62196000I-635000J0D01*
G01*
X147972000Y-62196000D02*
G75*
G02*
X149242000Y-62196000I635000J0D01*
G01*
D13*
G36*
X143241500Y-57814500D02*
G01*
X142670000Y-58386000D01*
X142670000Y-58259000D01*
X142162000Y-57751000D01*
X143241500Y-57814500D01*
G37*
G36*
X147241500Y-57814500D02*
G01*
X146670000Y-58386000D01*
X146670000Y-58259000D01*
X146162000Y-57751000D01*
X147241500Y-57814500D01*
G37*
%TO.C,C17*%
D11*
X133638500Y-83835000D02*
X133638500Y-85245000D01*
X133638500Y-87457000D02*
X133638500Y-86047000D01*
X135293000Y-83682500D02*
X133791000Y-83682500D01*
X135293000Y-87609500D02*
X133791000Y-87609500D01*
X135445500Y-85245000D02*
X135445500Y-83835000D01*
X135445500Y-86047000D02*
X135445500Y-87457000D01*
X133638500Y-83835000D02*
G75*
G02*
X133791000Y-83682500I152500J0D01*
G01*
X133791000Y-87609500D02*
G75*
G02*
X133638500Y-87457000I-1J152499D01*
G01*
X135293000Y-83682500D02*
G75*
G02*
X135445500Y-83835000I0J-152500D01*
G01*
X135445500Y-87457000D02*
G75*
G02*
X135293000Y-87609500I-152499J-1D01*
G01*
%TO.C,C24*%
X158232500Y-153737000D02*
X158232500Y-152235000D01*
X158385000Y-152082500D02*
X159795000Y-152082500D01*
X159795000Y-153889500D02*
X158385000Y-153889500D01*
X160597000Y-153889500D02*
X162007000Y-153889500D01*
X162007000Y-152082500D02*
X160597000Y-152082500D01*
X162159500Y-153737000D02*
X162159500Y-152235000D01*
X158232500Y-152235000D02*
G75*
G02*
X158385000Y-152082500I152499J1D01*
G01*
X158385000Y-153889500D02*
G75*
G02*
X158232500Y-153737000I-1J152499D01*
G01*
X162007000Y-152082500D02*
G75*
G02*
X162159500Y-152235000I0J-152500D01*
G01*
X162159500Y-153737000D02*
G75*
G02*
X162007000Y-153889500I-152500J0D01*
G01*
%TO.C,J5*%
D12*
X122382000Y-52895000D02*
X122382000Y-66895000D01*
X123215000Y-52910000D02*
X122382000Y-52910000D01*
X123215000Y-60530000D02*
X125621000Y-60530000D01*
X123215000Y-66910000D02*
X122382000Y-66910000D01*
X123215000Y-66910000D02*
X123215000Y-60530000D01*
X125621000Y-60530000D02*
X125677000Y-60530000D01*
X125677000Y-66910000D02*
X125677000Y-60530000D01*
X125906000Y-57609000D02*
X126415000Y-58117000D01*
X126287000Y-53799000D02*
X126287000Y-57736000D01*
X126287000Y-57736000D02*
X126414000Y-57863000D01*
X126415000Y-58117000D02*
X126542000Y-58244000D01*
X126541000Y-58244000D02*
X126541000Y-53799000D01*
X126541000Y-58244000D02*
X127176000Y-57609000D01*
X126787000Y-53799000D02*
X126287000Y-53799000D01*
X126787000Y-57609000D02*
X126787000Y-53799000D01*
X127176000Y-57609000D02*
X125906000Y-57609000D01*
X127215000Y-52910000D02*
X125677000Y-52910000D01*
X127215000Y-52910000D02*
X126382000Y-52910000D01*
X127215000Y-60530000D02*
X129621000Y-60530000D01*
X127215000Y-60530000D02*
X129621000Y-60530000D01*
X127215000Y-66910000D02*
X125677000Y-66910000D01*
X127215000Y-66910000D02*
X126382000Y-66910000D01*
X127215000Y-66910000D02*
X127215000Y-60530000D01*
X127215000Y-66910000D02*
X127215000Y-60530000D01*
X129621000Y-60530000D02*
X129677000Y-60530000D01*
X129621000Y-60530000D02*
X129677000Y-60530000D01*
X129677000Y-66910000D02*
X129677000Y-60530000D01*
X129677000Y-66910000D02*
X129677000Y-60530000D01*
X129906000Y-57609000D02*
X130415000Y-58117000D01*
X130287000Y-53799000D02*
X130287000Y-57736000D01*
X130287000Y-57736000D02*
X130414000Y-57863000D01*
X130415000Y-58117000D02*
X130542000Y-58244000D01*
X130510000Y-52910000D02*
X129677000Y-52910000D01*
X130510000Y-66910000D02*
X129677000Y-66910000D01*
X130541000Y-58244000D02*
X130541000Y-53799000D01*
X130541000Y-58244000D02*
X131176000Y-57609000D01*
X130787000Y-53799000D02*
X130287000Y-53799000D01*
X130787000Y-57609000D02*
X130787000Y-53799000D01*
X131176000Y-57609000D02*
X129906000Y-57609000D01*
X131215000Y-52910000D02*
X129677000Y-52910000D01*
X131215000Y-60530000D02*
X133621000Y-60530000D01*
X131215000Y-66910000D02*
X129677000Y-66910000D01*
X131215000Y-66910000D02*
X131215000Y-60530000D01*
X133621000Y-60530000D02*
X133677000Y-60530000D01*
X133677000Y-66910000D02*
X133677000Y-60530000D01*
X134510000Y-52910000D02*
X133677000Y-52910000D01*
X134510000Y-52910000D02*
X134510000Y-66910000D01*
X134510000Y-66910000D02*
X133677000Y-66910000D01*
X125113000Y-62054000D02*
G75*
G02*
X123843000Y-62054000I-635000J0D01*
G01*
X123843000Y-62054000D02*
G75*
G02*
X125113000Y-62054000I635000J0D01*
G01*
X129113000Y-62054000D02*
G75*
G02*
X127843000Y-62054000I-635000J0D01*
G01*
X127843000Y-62054000D02*
G75*
G02*
X129113000Y-62054000I635000J0D01*
G01*
X129113000Y-62054000D02*
G75*
G02*
X127843000Y-62054000I-635000J0D01*
G01*
X127843000Y-62054000D02*
G75*
G02*
X129113000Y-62054000I635000J0D01*
G01*
X133113000Y-62054000D02*
G75*
G02*
X131843000Y-62054000I-635000J0D01*
G01*
X131843000Y-62054000D02*
G75*
G02*
X133113000Y-62054000I635000J0D01*
G01*
D13*
G36*
X127112500Y-57672500D02*
G01*
X126541000Y-58244000D01*
X126541000Y-58117000D01*
X126033000Y-57609000D01*
X127112500Y-57672500D01*
G37*
G36*
X131112500Y-57672500D02*
G01*
X130541000Y-58244000D01*
X130541000Y-58117000D01*
X130033000Y-57609000D01*
X131112500Y-57672500D01*
G37*
%TO.C,C3*%
D11*
X131362500Y-127450500D02*
X131362500Y-128860500D01*
X131362500Y-131072500D02*
X131362500Y-129662500D01*
X133017000Y-127298000D02*
X131515000Y-127298000D01*
X133017000Y-131225000D02*
X131515000Y-131225000D01*
X133169500Y-128860500D02*
X133169500Y-127450500D01*
X133169500Y-129662500D02*
X133169500Y-131072500D01*
X131362500Y-127450500D02*
G75*
G02*
X131515000Y-127298000I152500J0D01*
G01*
X131515000Y-131225000D02*
G75*
G02*
X131362500Y-131072500I-1J152499D01*
G01*
X133017000Y-127298000D02*
G75*
G02*
X133169500Y-127450500I0J-152500D01*
G01*
X133169500Y-131072500D02*
G75*
G02*
X133017000Y-131225000I-152499J-1D01*
G01*
%TD*%
%LPC*%
D18*
%TO.C,C11*%
X108176000Y-110244500D03*
X110176000Y-110244500D03*
%TD*%
D19*
%TO.C,R14*%
X110004000Y-99429500D03*
X112004000Y-99429500D03*
%TD*%
D20*
%TO.C,R18*%
X137717000Y-84519000D03*
X137717000Y-86519000D03*
%TD*%
D21*
%TO.C,J9*%
X202286500Y-156002000D03*
D22*
X193035500Y-156002000D03*
D21*
X202286500Y-152002000D03*
D22*
X193035500Y-152002000D03*
%TD*%
D23*
%TO.C,FID3*%
X93000000Y-135000000D03*
%TD*%
D18*
%TO.C,C21*%
X159196000Y-150827000D03*
X161196000Y-150827000D03*
%TD*%
D24*
%TO.C,U2*%
X120318000Y-116567000D03*
X121588000Y-116567000D03*
X122858000Y-116567000D03*
X124128000Y-116567000D03*
X124128000Y-111427000D03*
X122858000Y-111427000D03*
X121588000Y-111427000D03*
X120318000Y-111427000D03*
%TD*%
D18*
%TO.C,C12*%
X120651000Y-123268000D03*
X118651000Y-123268000D03*
%TD*%
D25*
%TO.C,D3*%
X155835500Y-85854500D03*
X155835500Y-80671500D03*
%TD*%
D20*
%TO.C,R24*%
X192327000Y-121760000D03*
X192327000Y-123760000D03*
%TD*%
D19*
%TO.C,R3*%
X139193000Y-112473000D03*
X137193000Y-112473000D03*
%TD*%
D26*
%TO.C,TP5*%
X181786000Y-114378000D03*
%TD*%
D27*
%TO.C,U3*%
X155654000Y-99519000D03*
X155654000Y-98249000D03*
X155654000Y-96979000D03*
X155654000Y-95709000D03*
X150514000Y-95709000D03*
X150514000Y-96979000D03*
X150514000Y-98249000D03*
X150514000Y-99519000D03*
%TD*%
D19*
%TO.C,R10*%
X175960000Y-88978000D03*
X177960000Y-88978000D03*
%TD*%
D26*
%TO.C,TP16*%
X93140000Y-95455000D03*
%TD*%
D19*
%TO.C,R23*%
X117921000Y-153292000D03*
X119921000Y-153292000D03*
%TD*%
D28*
%TO.C,C16*%
X116873000Y-103500000D03*
X116873000Y-105500000D03*
%TD*%
D29*
%TO.C,J13*%
X158545000Y-161495000D03*
D30*
X161085000Y-161495000D03*
X163625000Y-161495000D03*
X166165000Y-161495000D03*
X168705000Y-161495000D03*
%TD*%
D26*
%TO.C,TP2*%
X203376000Y-88216000D03*
%TD*%
D28*
%TO.C,C18*%
X131240000Y-106558500D03*
X131240000Y-108558500D03*
%TD*%
D18*
%TO.C,C26*%
X198407000Y-127840000D03*
X196407000Y-127840000D03*
%TD*%
D26*
%TO.C,TP13*%
X203376000Y-99138000D03*
%TD*%
D31*
%TO.C,R12*%
X157420288Y-89740000D03*
X151287712Y-89740000D03*
%TD*%
D20*
%TO.C,R31*%
X146979000Y-114129500D03*
X146979000Y-112129500D03*
%TD*%
D28*
%TO.C,C2*%
X130107000Y-132579500D03*
X130107000Y-134579500D03*
%TD*%
D32*
%TO.C,U6*%
X125711000Y-134863500D03*
X125711000Y-132563500D03*
X125711000Y-130263500D03*
D33*
X119771000Y-132563500D03*
%TD*%
D26*
%TO.C,TP4*%
X203376000Y-104599000D03*
%TD*%
%TO.C,TP6*%
X93013000Y-119204000D03*
%TD*%
D28*
%TO.C,C19*%
X134425000Y-130261500D03*
X134425000Y-128261500D03*
%TD*%
D18*
%TO.C,C15*%
X122842000Y-105361000D03*
X120842000Y-105361000D03*
%TD*%
D25*
%TO.C,D1*%
X164133000Y-80671500D03*
X164133000Y-85854500D03*
%TD*%
D20*
%TO.C,R21*%
X134564500Y-102614500D03*
X134564500Y-104614500D03*
%TD*%
D19*
%TO.C,R22*%
X138536500Y-102737000D03*
X136536500Y-102737000D03*
%TD*%
D20*
%TO.C,R29*%
X151043000Y-114129500D03*
X151043000Y-112129500D03*
%TD*%
D34*
%TO.C,J7*%
X202376000Y-130507000D03*
X202376000Y-129237000D03*
X202376000Y-127967000D03*
X202376000Y-126697000D03*
X202376000Y-125427000D03*
%TD*%
D35*
%TO.C,J14*%
X94409000Y-156923000D03*
D36*
X103809000Y-156923000D03*
%TD*%
D26*
%TO.C,TP1*%
X203376000Y-118696000D03*
%TD*%
D18*
%TO.C,C20*%
X178119000Y-123014000D03*
X180119000Y-123014000D03*
%TD*%
D37*
%TO.C,U5*%
X159127000Y-123103500D03*
X158627000Y-123103500D03*
X158127000Y-123103500D03*
X157627000Y-123103500D03*
X157127000Y-123103500D03*
X156627000Y-123103500D03*
X156127000Y-123103500D03*
X155627000Y-123103500D03*
X155127000Y-123103500D03*
X154627000Y-123103500D03*
X154127000Y-123103500D03*
X153627000Y-123103500D03*
D38*
X152127000Y-124603500D03*
X152127000Y-125103500D03*
X152127000Y-125603500D03*
X152127000Y-126103500D03*
X152127000Y-126603500D03*
X152127000Y-127103500D03*
X152127000Y-127603500D03*
X152127000Y-128103500D03*
X152127000Y-128603500D03*
X152127000Y-129103500D03*
X152127000Y-129603500D03*
X152127000Y-130103500D03*
D37*
X153627000Y-131603500D03*
X154127000Y-131603500D03*
X154627000Y-131603500D03*
X155127000Y-131603500D03*
X155627000Y-131603500D03*
X156127000Y-131603500D03*
X156627000Y-131603500D03*
X157127000Y-131603500D03*
X157627000Y-131603500D03*
X158127000Y-131603500D03*
X158627000Y-131603500D03*
X159127000Y-131603500D03*
D38*
X160627000Y-130103500D03*
X160627000Y-129603500D03*
X160627000Y-129103500D03*
X160627000Y-128603500D03*
X160627000Y-128103500D03*
X160627000Y-127603500D03*
X160627000Y-127103500D03*
X160627000Y-126603500D03*
X160627000Y-126103500D03*
X160627000Y-125603500D03*
X160627000Y-125103500D03*
X160627000Y-124603500D03*
%TD*%
D21*
%TO.C,J3*%
X94082500Y-124443000D03*
D22*
X103333500Y-124443000D03*
D21*
X94082500Y-128443000D03*
D22*
X103333500Y-128443000D03*
%TD*%
D19*
%TO.C,R32*%
X181619000Y-128173000D03*
X183619000Y-128173000D03*
%TD*%
%TO.C,R33*%
X185707000Y-130253000D03*
X183707000Y-130253000D03*
%TD*%
%TO.C,R11*%
X186713000Y-85505500D03*
X184713000Y-85505500D03*
%TD*%
D24*
%TO.C,U8*%
X137082000Y-92601000D03*
X135812000Y-92601000D03*
X134542000Y-92601000D03*
X133272000Y-92601000D03*
X133272000Y-97741000D03*
X134542000Y-97741000D03*
X135812000Y-97741000D03*
X137082000Y-97741000D03*
%TD*%
D39*
%TO.C,C6*%
X189605000Y-76786000D03*
X198605000Y-76786000D03*
%TD*%
D19*
%TO.C,R5*%
X163282000Y-72185000D03*
X165282000Y-72185000D03*
%TD*%
D20*
%TO.C,R27*%
X158536000Y-112129500D03*
X158536000Y-114129500D03*
%TD*%
%TO.C,R26*%
X156489500Y-114129500D03*
X156489500Y-112129500D03*
%TD*%
%TO.C,R20*%
X131269500Y-104614500D03*
X131269500Y-102614500D03*
%TD*%
D26*
%TO.C,TP20*%
X93267000Y-144096000D03*
%TD*%
D40*
%TO.C,U7*%
X182446000Y-85549000D03*
X182446000Y-83009000D03*
X176046000Y-83009000D03*
X176046000Y-85549000D03*
%TD*%
D20*
%TO.C,R8*%
X162990000Y-76167000D03*
X162990000Y-78167000D03*
%TD*%
%TO.C,R2*%
X148639000Y-86041000D03*
X148639000Y-84041000D03*
%TD*%
D18*
%TO.C,C10*%
X120685000Y-121153500D03*
X118685000Y-121153500D03*
%TD*%
D39*
%TO.C,C5*%
X180571000Y-95328000D03*
X171571000Y-95328000D03*
%TD*%
D20*
%TO.C,R4*%
X151052000Y-104361000D03*
X151052000Y-106361000D03*
%TD*%
D41*
%TO.C,U1*%
X171837500Y-72976000D03*
X171837500Y-74246000D03*
X171837500Y-75516000D03*
X171837500Y-76786000D03*
X171837500Y-78056000D03*
X171837500Y-79326000D03*
X171837500Y-80596000D03*
D42*
X182082500Y-76786000D03*
%TD*%
D20*
%TO.C,R16*%
X129081000Y-102583000D03*
X129081000Y-104583000D03*
%TD*%
D26*
%TO.C,TP9*%
X203376000Y-93677000D03*
%TD*%
%TO.C,J11*%
X202614000Y-137746000D03*
X202614000Y-140286000D03*
X202614000Y-142826000D03*
X202614000Y-145366000D03*
X202614000Y-147906000D03*
%TD*%
D20*
%TO.C,R19*%
X134564500Y-108420000D03*
X134564500Y-106420000D03*
%TD*%
D27*
%TO.C,U4*%
X119018000Y-97360000D03*
X119018000Y-98630000D03*
X119018000Y-99900000D03*
X119018000Y-101170000D03*
X124158000Y-101170000D03*
X124158000Y-99900000D03*
X124158000Y-98630000D03*
X124158000Y-97360000D03*
%TD*%
D19*
%TO.C,R17*%
X137847000Y-88894000D03*
X135847000Y-88894000D03*
%TD*%
D18*
%TO.C,C4*%
X155005000Y-92788000D03*
X157005000Y-92788000D03*
%TD*%
D20*
%TO.C,FB1*%
X126668000Y-93119500D03*
X126668000Y-95051500D03*
%TD*%
D28*
%TO.C,C13*%
X116127000Y-97376000D03*
X116127000Y-99376000D03*
%TD*%
D18*
%TO.C,C14*%
X142781000Y-72722000D03*
X140781000Y-72722000D03*
%TD*%
D20*
%TO.C,R7*%
X165149000Y-76167000D03*
X165149000Y-78167000D03*
%TD*%
D26*
%TO.C,TP3*%
X187247000Y-114378000D03*
%TD*%
D28*
%TO.C,C1*%
X125535000Y-128356500D03*
X125535000Y-126356500D03*
%TD*%
D21*
%TO.C,J4*%
X202159500Y-113711000D03*
D22*
X192908500Y-113711000D03*
D21*
X202159500Y-109711000D03*
D22*
X192908500Y-109711000D03*
%TD*%
D26*
%TO.C,TP8*%
X163244000Y-54307000D03*
%TD*%
D43*
%TO.C,TP21*%
X122333000Y-153292000D03*
%TD*%
D19*
%TO.C,R6*%
X163260000Y-74246000D03*
X165260000Y-74246000D03*
%TD*%
D44*
%TO.C,U10*%
X129630000Y-155242000D03*
X129630000Y-154592000D03*
X129630000Y-153942000D03*
X129630000Y-153292000D03*
X125230000Y-153292000D03*
X125230000Y-153942000D03*
X125230000Y-154592000D03*
X125230000Y-155242000D03*
%TD*%
D26*
%TO.C,TP10*%
X177722000Y-69928000D03*
%TD*%
D19*
%TO.C,R15*%
X129127000Y-106504000D03*
X127127000Y-106504000D03*
%TD*%
D45*
%TO.C,RSH2*%
X159917000Y-88967000D03*
X166317000Y-88967000D03*
D46*
X159917000Y-91067000D03*
X166317000Y-91067000D03*
%TD*%
D20*
%TO.C,R13*%
X113968000Y-99503000D03*
X113968000Y-97503000D03*
%TD*%
D25*
%TO.C,D2*%
X159984500Y-85854500D03*
X159984500Y-80671500D03*
%TD*%
D26*
%TO.C,J10*%
X176960000Y-160479000D03*
X179500000Y-160479000D03*
X182040000Y-160479000D03*
X184580000Y-160479000D03*
X187120000Y-160479000D03*
%TD*%
D47*
%TO.C,J8*%
X144908000Y-159871000D03*
D48*
X144908000Y-150621000D03*
D47*
X148908000Y-159871000D03*
D48*
X148908000Y-150621000D03*
D47*
X152908000Y-159871000D03*
D48*
X152908000Y-150621000D03*
%TD*%
D26*
%TO.C,TP15*%
X187755000Y-123776000D03*
%TD*%
%TO.C,TP14*%
X143305000Y-86057000D03*
%TD*%
D20*
%TO.C,FB3*%
X132266000Y-132613500D03*
X132266000Y-134545500D03*
%TD*%
D26*
%TO.C,TP18*%
X93140000Y-89232000D03*
%TD*%
D20*
%TO.C,FB2*%
X132353000Y-84730000D03*
X132353000Y-86662000D03*
%TD*%
D28*
%TO.C,C25*%
X134259000Y-138754000D03*
X134259000Y-140754000D03*
%TD*%
D23*
%TO.C,FID1*%
X195000000Y-55000000D03*
%TD*%
%TO.C,FID2*%
X93000000Y-70000000D03*
%TD*%
D20*
%TO.C,R25*%
X164133000Y-99408000D03*
X164133000Y-101408000D03*
%TD*%
D47*
%TO.C,J2*%
X118222000Y-55905000D03*
D48*
X118222000Y-65155000D03*
D47*
X114222000Y-55905000D03*
D48*
X114222000Y-65155000D03*
D47*
X110222000Y-55905000D03*
D48*
X110222000Y-65155000D03*
%TD*%
D18*
%TO.C,C9*%
X126430000Y-113997000D03*
X128430000Y-113997000D03*
%TD*%
D26*
%TO.C,TP12*%
X93140000Y-83517000D03*
%TD*%
D20*
%TO.C,R1*%
X126668000Y-85184000D03*
X126668000Y-87184000D03*
%TD*%
%TO.C,R28*%
X153045500Y-112151500D03*
X153045500Y-114151500D03*
%TD*%
D28*
%TO.C,C23*%
X132261000Y-138754000D03*
X132261000Y-140754000D03*
%TD*%
D18*
%TO.C,C22*%
X132240000Y-136603000D03*
X130240000Y-136603000D03*
%TD*%
D25*
%TO.C,D4*%
X151687000Y-80671500D03*
X151687000Y-85854500D03*
%TD*%
D20*
%TO.C,R30*%
X149011000Y-112129500D03*
X149011000Y-114129500D03*
%TD*%
%TO.C,R9*%
X160069000Y-76167000D03*
X160069000Y-78167000D03*
%TD*%
D29*
%TO.C,J12*%
X140384000Y-161622000D03*
D30*
X137844000Y-161622000D03*
X135304000Y-161622000D03*
X132764000Y-161622000D03*
X130224000Y-161622000D03*
%TD*%
D26*
%TO.C,TP17*%
X156005000Y-54307000D03*
%TD*%
%TO.C,TP11*%
X97331000Y-111192000D03*
%TD*%
%TO.C,TP19*%
X93267000Y-150065000D03*
%TD*%
D21*
%TO.C,J6*%
X94611000Y-100472000D03*
D22*
X103861000Y-100472000D03*
D21*
X94611000Y-104472000D03*
D22*
X103861000Y-104472000D03*
D21*
X94611000Y-108472000D03*
D22*
X103861000Y-108472000D03*
%TD*%
D47*
%TO.C,J1*%
X148575000Y-56047000D03*
D48*
X148575000Y-65297000D03*
D47*
X144575000Y-56047000D03*
D48*
X144575000Y-65297000D03*
D47*
X140575000Y-56047000D03*
D48*
X140575000Y-65297000D03*
%TD*%
D26*
%TO.C,TP7*%
X93013000Y-113362000D03*
%TD*%
D28*
%TO.C,C17*%
X134542000Y-86646000D03*
X134542000Y-84646000D03*
%TD*%
D18*
%TO.C,C24*%
X159196000Y-152986000D03*
X161196000Y-152986000D03*
%TD*%
D47*
%TO.C,J5*%
X132446000Y-55905000D03*
D48*
X132446000Y-65155000D03*
D47*
X128446000Y-55905000D03*
D48*
X128446000Y-65155000D03*
D47*
X124446000Y-55905000D03*
D48*
X124446000Y-65155000D03*
%TD*%
D28*
%TO.C,C3*%
X132266000Y-130261500D03*
X132266000Y-128261500D03*
%TD*%
%LPD*%
M02*
