%TF.GenerationSoftware,KiCad,Pcbnew,10.0.4*%
%TF.CreationDate,2026-09-04T19:59:28+08:00*%
%TF.ProjectId,project,70726f6a-6563-4742-9e6b-696361645f70,rev?*%
%TF.SameCoordinates,Original*%
%TF.FileFunction,Soldermask,Bot*%
%TF.FilePolarity,Negative*%
%FSLAX46Y46*%
G04 Gerber Fmt 4.6, Leading zero omitted, Abs format (unit mm)*
G04 Created by KiCad (PCBNEW 10.0.4) date 2026-09-04 19:59:28*
%MOMM*%
%LPD*%
G01*
G04 APERTURE LIST*
%ADD10C,1.600000*%
%ADD11R,1.575000X1.575000*%
%ADD12C,1.575000*%
%ADD13C,1.050000*%
%ADD14R,1.410000X1.350000*%
%ADD15R,1.350000X1.410000*%
%ADD16R,1.132500X1.377000*%
%ADD17R,1.377000X1.132500*%
%ADD18C,2.000000*%
%ADD19O,2.045000X0.588000*%
G04 APERTURE END LIST*
D10*
%TO.C,TP5*%
X181786000Y-114378000D03*
%TD*%
%TO.C,TP16*%
X93140000Y-95455000D03*
%TD*%
D11*
%TO.C,J13*%
X158545000Y-161495000D03*
D12*
X161085000Y-161495000D03*
X163625000Y-161495000D03*
X166165000Y-161495000D03*
X168705000Y-161495000D03*
%TD*%
D10*
%TO.C,TP2*%
X203376000Y-88216000D03*
%TD*%
%TO.C,TP13*%
X203376000Y-99138000D03*
%TD*%
%TO.C,TP4*%
X203376000Y-104599000D03*
%TD*%
%TO.C,TP6*%
X93013000Y-119204000D03*
%TD*%
D13*
%TO.C,J7*%
X202376000Y-130507000D03*
X202376000Y-129237000D03*
X202376000Y-127967000D03*
X202376000Y-126697000D03*
X202376000Y-125427000D03*
%TD*%
D10*
%TO.C,TP1*%
X203376000Y-118696000D03*
%TD*%
%TO.C,TP20*%
X93267000Y-144096000D03*
%TD*%
%TO.C,TP9*%
X203376000Y-93677000D03*
%TD*%
%TO.C,J11*%
X202614000Y-137746000D03*
X202614000Y-140286000D03*
X202614000Y-142826000D03*
X202614000Y-145366000D03*
X202614000Y-147906000D03*
%TD*%
%TO.C,TP3*%
X187247000Y-114378000D03*
%TD*%
%TO.C,TP8*%
X163244000Y-54307000D03*
%TD*%
%TO.C,TP10*%
X177722000Y-69928000D03*
%TD*%
%TO.C,J10*%
X176960000Y-160479000D03*
X179500000Y-160479000D03*
X182040000Y-160479000D03*
X184580000Y-160479000D03*
X187120000Y-160479000D03*
%TD*%
%TO.C,TP15*%
X187755000Y-123776000D03*
%TD*%
%TO.C,TP14*%
X143305000Y-86057000D03*
%TD*%
%TO.C,TP18*%
X93140000Y-89232000D03*
%TD*%
%TO.C,TP12*%
X93140000Y-83517000D03*
%TD*%
D11*
%TO.C,J12*%
X140384000Y-161622000D03*
D12*
X137844000Y-161622000D03*
X135304000Y-161622000D03*
X132764000Y-161622000D03*
X130224000Y-161622000D03*
%TD*%
D10*
%TO.C,TP17*%
X156005000Y-54307000D03*
%TD*%
%TO.C,TP11*%
X97331000Y-111192000D03*
%TD*%
%TO.C,TP19*%
X93267000Y-150065000D03*
%TD*%
%TO.C,TP7*%
X93013000Y-113362000D03*
%TD*%
D14*
%TO.C,C32*%
X108988500Y-150144000D03*
X106988500Y-150144000D03*
%TD*%
D15*
%TO.C,C7*%
X167689000Y-79850000D03*
X167689000Y-81850000D03*
%TD*%
D16*
%TO.C,R45*%
X110728000Y-84532500D03*
X112728000Y-84532500D03*
%TD*%
%TO.C,R42*%
X117969500Y-147579000D03*
X119969500Y-147579000D03*
%TD*%
%TO.C,R34*%
X109191000Y-129189000D03*
X107191000Y-129189000D03*
%TD*%
D14*
%TO.C,C8*%
X164530000Y-77929000D03*
X166530000Y-77929000D03*
%TD*%
D16*
%TO.C,R44*%
X117969500Y-135123500D03*
X119969500Y-135123500D03*
%TD*%
D15*
%TO.C,C38*%
X101769500Y-80763500D03*
X101769500Y-78763500D03*
%TD*%
D16*
%TO.C,R35*%
X107174500Y-126439500D03*
X109174500Y-126439500D03*
%TD*%
D15*
%TO.C,C27*%
X172261000Y-78675000D03*
X172261000Y-76675000D03*
%TD*%
D16*
%TO.C,R37*%
X119969500Y-157703000D03*
X117969500Y-157703000D03*
%TD*%
D17*
%TO.C,R39*%
X112095500Y-136311500D03*
X112095500Y-138311500D03*
%TD*%
D15*
%TO.C,C41*%
X109977500Y-80763500D03*
X109977500Y-78763500D03*
%TD*%
%TO.C,C42*%
X112713000Y-80763500D03*
X112713000Y-78763500D03*
%TD*%
D16*
%TO.C,R40*%
X117969500Y-138244000D03*
X119969500Y-138244000D03*
%TD*%
D14*
%TO.C,C31*%
X108988500Y-136183000D03*
X106988500Y-136183000D03*
%TD*%
D16*
%TO.C,R46*%
X178246000Y-79326000D03*
X180246000Y-79326000D03*
%TD*%
D15*
%TO.C,C40*%
X107241500Y-80763500D03*
X107241500Y-78763500D03*
%TD*%
D14*
%TO.C,C35*%
X108988500Y-139673000D03*
X106988500Y-139673000D03*
%TD*%
D18*
%TO.C,FID6*%
X93000000Y-135000000D03*
%TD*%
D14*
%TO.C,C36*%
X108988500Y-132692500D03*
X106988500Y-132692500D03*
%TD*%
%TO.C,C33*%
X108988500Y-146653500D03*
X106988500Y-146653500D03*
%TD*%
D18*
%TO.C,FID5*%
X93000000Y-70000000D03*
%TD*%
D19*
%TO.C,U9*%
X124733000Y-147906000D03*
X124733000Y-146636000D03*
X124733000Y-145366000D03*
X124733000Y-144096000D03*
X129873000Y-144096000D03*
X129873000Y-145366000D03*
X129873000Y-146636000D03*
X129873000Y-147906000D03*
%TD*%
D15*
%TO.C,C39*%
X104505500Y-80763500D03*
X104505500Y-78763500D03*
%TD*%
D14*
%TO.C,C34*%
X108988500Y-143163500D03*
X106988500Y-143163500D03*
%TD*%
D16*
%TO.C,R43*%
X117969500Y-150699500D03*
X119969500Y-150699500D03*
%TD*%
D15*
%TO.C,C29*%
X116408500Y-119537500D03*
X116408500Y-117537500D03*
%TD*%
D14*
%TO.C,C30*%
X118172000Y-144472000D03*
X120172000Y-144472000D03*
%TD*%
D15*
%TO.C,C28*%
X109236500Y-119537500D03*
X109236500Y-117537500D03*
%TD*%
D18*
%TO.C,FID4*%
X195000000Y-55000000D03*
%TD*%
D17*
%TO.C,R36*%
X112822500Y-119740000D03*
X112822500Y-117740000D03*
%TD*%
D16*
%TO.C,R41*%
X117969500Y-141365000D03*
X119969500Y-141365000D03*
%TD*%
D15*
%TO.C,C37*%
X99034000Y-80763500D03*
X99034000Y-78763500D03*
%TD*%
D16*
%TO.C,R38*%
X117969500Y-153820000D03*
X119969500Y-153820000D03*
%TD*%
M02*
